<svg xmlns="http://www.w3.org/2000/svg" viewBox="0 0 576 512"><!--!Font Awesome Pro 6.7.2 by @fontawesome - https://fontawesome.com License - https://fontawesome.com/license (Commercial License) Copyright 2025 Fonticons, Inc.--><path class="fa-secondary" opacity=".4" d="M16 80C16 35.8 51.8 0 96 0L288 0c44.2 0 80 35.8 80 80l0 124c-17.5 6.9-33.7 16.4-48 28.2L320 80c0-17.7-14.3-32-32-32l-32 0 0 16c0 8.8-7.2 16-16 16l-96 0c-8.8 0-16-7.2-16-16l0-16L96 48C78.3 48 64 62.3 64 80l0 352c0 17.7 14.3 32 32 32l188.5 0c10.1 15.4 22.5 29.2 36.8 40.8c-10.1 4.6-21.4 7.2-33.3 7.2L96 512c-44.2 0-80-35.8-80-80L16 80z"/><path class="fa-primary" d="M288 368c0-79.5 64.5-144 144-144s144 64.5 144 144s-64.5 144-144 144s-144-64.5-144-144zm160-64c0-8.8-7.2-16-16-16s-16 7.2-16 16l0 64c0 8.8 7.2 16 16 16l48 0c8.8 0 16-7.2 16-16s-7.2-16-16-16l-32 0 0-48z"/></svg>