<svg width="645" height="200" viewBox="0 0 645 200" fill="none" xmlns="http://www.w3.org/2000/svg">
<path d="M578.313 103.36H591.13C599.195 103.36 604.539 104.571 608.377 107.247C611.989 109.928 613.873 113.971 613.873 119.237V121.725C613.873 127.01 612.079 131.097 608.816 133.51C604.922 136.299 599.421 137.433 589.877 137.433C585.226 137.433 581.963 137.222 579.329 136.835C578.754 136.727 578.469 136.645 578.395 136.645C578.367 136.53 578.313 136.237 578.313 135.573V103.36ZM605.787 63.7752C605.787 74.198 599.678 78.8335 585.947 78.8335H578.313V49.5326C578.313 49.099 578.344 48.8451 578.367 48.704C578.434 48.704 578.433 48.6835 578.505 48.6835C581.088 48.4988 583.783 48.4988 588.268 48.4988C594.528 48.4988 599.259 49.6018 601.883 51.7156C604.54 53.791 605.787 56.9258 605.787 61.2714V63.7752ZM624.341 87.9352C632.486 82.2813 636.945 73.2924 636.945 62.1154V58.8216C636.945 47.6009 632.971 38.884 625.091 32.8812C616.309 26.178 603.04 22.938 584.543 22.938C574.755 22.938 564.98 23.5255 556.935 24.5978C550.13 25.6342 547.789 28.379 547.789 35.5132V150.624C547.789 158.096 550.325 161.031 557.487 161.742C565.088 162.355 576.028 162.773 585.351 162.773C607.355 162.773 622.706 159.122 632.36 151.56C640.736 144.97 645 134.911 645 121.725V118.86C645 103.956 637.702 93.1171 624.341 87.9352ZM521.809 161.177C520.264 162.773 518.069 162.773 514.976 162.773H501.142C496.499 162.773 492.902 162.773 492.902 155.798C492.83 145.598 492.83 134.832 492.83 123.996C492.83 106.069 492.83 87.6017 492.512 71.153C487.773 84.9364 482.018 101.262 476.843 115.966C473.604 125.153 470.634 133.557 468.401 140.011C466.375 145.624 462.828 146.078 459.088 146.078L446.643 146.065H444.595C440.472 146.065 437.15 145.637 434.879 140.139C428.225 123.87 417.567 94.1638 409.923 71.5429C409.694 86.6269 409.73 103.373 409.73 119.719C409.73 131.984 409.769 144.226 409.674 155.798C409.674 162.773 406.059 162.773 401.418 162.773H387.6C384.525 162.773 382.282 162.773 380.754 161.177C379.381 159.751 379.25 157.691 379.381 155.675C379.635 146.981 379.856 138.125 380.12 129.178C381.008 96.6008 381.932 62.9004 383.919 33.502C384.458 24.7697 389.259 24.7697 396.49 24.7697H410.31C419.01 24.7697 422.108 25.1391 424.446 32.3168C432.717 57.7518 442.328 86.8655 451.317 112.188C460.623 87.0989 470.221 58.9883 478.545 32.5605C480.838 25.3879 483.849 24.7697 492.479 24.7697H506.307C513.82 24.7697 518.115 25.1827 518.682 33.7046C520.726 62.2155 521.557 94.7769 522.392 126.266C522.641 136.158 522.936 146.004 523.18 155.708C523.285 157.691 523.18 159.751 521.809 161.177ZM318.349 105.872H290.051C294.294 90.8468 299.207 73.7183 304.233 57.1259C309.305 73.8337 314.334 91.5523 318.349 105.872ZM363.589 154.556C352.428 114.253 337.426 66.8048 325.323 33.7046C322.625 26.0882 318.169 24.7697 309.185 24.7697H299.084C290.181 24.7697 286.054 26.0267 283.289 33.7046C277.929 48.6475 259.27 101.572 244.667 154.556C244.184 156.231 243.802 158.638 245.242 160.469C246.995 162.773 250.296 162.773 254.447 162.773H265.392C271.337 162.773 274.864 161.654 276.464 155.741L282.819 132.053H325.626L331.982 155.741C333.591 161.654 337.106 162.773 343.03 162.773H353.965C358.25 162.773 361.322 162.773 363.05 160.531C364.485 158.666 364.036 156.239 363.589 154.556Z" fill="#565353"/>
<path d="M133.173 159.96C135.901 162.669 135.901 167.112 133.173 169.811L104.998 197.978C102.287 200.674 97.8538 200.674 95.1174 197.978L66.9681 169.811C64.224 167.112 64.224 162.669 66.9681 159.96L95.1174 131.824C97.8538 129.087 102.287 129.087 104.998 131.824L133.173 159.96Z" fill="#EE2722"/>
<path d="M104.502 1.83163C102.066 -0.610543 98.0747 -0.610543 95.6027 1.83163L1.82896 95.5705C-0.609654 98.0204 -0.609654 101.999 1.82896 104.457L27.1521 129.769C29.6061 132.213 33.6234 132.213 36.0697 129.769L95.6027 70.2201C98.0747 67.7908 102.066 67.7908 104.502 70.2201L164.087 129.769C166.492 132.213 170.481 132.213 172.966 129.769L198.312 104.457C200.715 101.999 200.715 98.0204 198.312 95.5705L104.502 1.83163Z" fill="#EE2722"/>
</svg>
