<svg width="127" height="40" viewBox="0 0 127 40" fill="none" xmlns="http://www.w3.org/2000/svg">
<g clip-path="url(#clip0_81_2212)">
<path d="M116.803 0H9.535C9.168 0 8.806 0 8.44 0.002C8.134 0.004 7.83 0.01 7.521 0.015C6.855 0.031 6.182 0.072 5.517 0.191C4.848 0.309 4.226 0.509 3.616 0.818C3.018 1.125 2.471 1.523 1.998 1.997C1.519 2.471 1.123 3.02 0.819 3.618C0.508 4.227 0.311 4.852 0.194 5.521C0.074 6.184 0.032 6.854 0.015 7.523C0.006 7.83 0.005 8.138 0 8.444C0 8.807 0 9.17 0 9.536V30.465C0 30.834 0 31.195 0 31.559C0.005 31.87 0.006 32.17 0.015 32.481C0.032 33.151 0.074 33.821 0.194 34.483C0.311 35.153 0.508 35.781 0.819 36.387C1.122 36.983 1.519 37.532 1.997 38.001C2.47 38.479 3.017 38.876 3.616 39.18C4.225 39.492 4.847 39.69 5.517 39.811C6.182 39.93 6.855 39.969 7.521 39.988C7.83 39.995 8.134 39.999 8.44 39.999C8.806 40 9.168 40 9.535 40H116.803C117.162 40 117.528 40 117.887 39.998C118.192 39.998 118.504 39.994 118.809 39.987C119.479 39.968 120.151 39.929 120.809 39.81C121.479 39.689 122.102 39.492 122.717 39.179C123.315 38.875 123.862 38.478 124.334 38C124.811 37.53 125.207 36.981 125.516 36.386C125.823 35.78 126.022 35.152 126.135 34.482C126.258 33.82 126.297 33.15 126.321 32.48C126.325 32.169 126.325 31.869 126.325 31.558C126.333 31.195 126.333 30.833 126.333 30.464V9.536C126.333 9.17 126.333 8.807 126.325 8.444C126.325 8.137 126.325 7.83 126.321 7.523C126.298 6.853 126.259 6.183 126.135 5.521C126.022 4.851 125.823 4.226 125.516 3.618C125.207 3.019 124.811 2.471 124.334 1.997C123.861 1.523 123.314 1.125 122.717 0.818C122.102 0.508 121.479 0.308 120.809 0.191C120.151 0.072 119.479 0.031 118.809 0.014C118.504 0.009 118.192 0.003 117.887 0.001C117.528 0 117.162 0 116.803 0Z" fill="black"/>
<path d="M8.445 39.125C8.14 39.125 7.843 39.121 7.541 39.114C6.982 39.098 6.319 39.067 5.672 38.951C5.062 38.841 4.519 38.661 4.015 38.403C3.494 38.138 3.025 37.797 2.618 37.386C2.204 36.98 1.864 36.513 1.597 35.99C1.338 35.485 1.16 34.943 1.054 34.333C0.932 33.66 0.901 32.978 0.888 32.458C0.882 32.247 0.873 31.545 0.873 31.545V8.444C0.873 8.444 0.882 7.753 0.888 7.549C0.901 7.025 0.932 6.343 1.054 5.677C1.16 5.064 1.337 4.522 1.597 4.016C1.863 3.492 2.203 3.022 2.612 2.618C3.026 2.204 3.496 1.861 4.014 1.596C4.528 1.335 5.069 1.157 5.667 1.052C6.341 0.931 7.023 0.9 7.543 0.887L8.445 0.875H117.882L118.795 0.888C119.308 0.901 119.99 0.931 120.653 1.051C121.256 1.156 121.8 1.336 122.324 1.599C122.837 1.862 123.306 2.204 123.716 2.615C124.125 3.021 124.468 3.493 124.739 4.019C124.997 4.53 125.173 5.072 125.274 5.668C125.39 6.299 125.426 6.947 125.448 7.555C125.451 7.838 125.451 8.142 125.451 8.445C125.459 8.82 125.459 9.177 125.459 9.537V30.466C125.459 30.829 125.459 31.184 125.451 31.541C125.451 31.866 125.451 32.164 125.447 32.471C125.426 33.06 125.39 33.707 125.276 34.325C125.172 34.938 124.997 35.48 124.736 35.995C124.466 36.515 124.124 36.984 123.72 37.381C123.307 37.799 122.838 38.14 122.321 38.404C121.802 38.668 121.273 38.842 120.653 38.954C120.012 39.07 119.349 39.101 118.784 39.117C118.491 39.124 118.184 39.128 117.887 39.128L116.803 39.13L8.445 39.125Z" fill="black"/>
<path d="M34 8.709H36.163C37.939 8.709 38.981 9.805 38.981 11.685V11.693C38.981 13.594 37.948 14.698 36.163 14.698H34V8.709ZM36.059 13.897C37.313 13.897 38.035 13.096 38.035 11.706V11.697C38.035 10.319 37.301 9.51 36.059 9.51H34.93V13.897H36.059Z" fill="white"/>
<path d="M40.021 12.457V12.453C40.021 11.046 40.834 10.103 42.092 10.103C43.35 10.103 44.122 11.012 44.122 12.365V12.68H40.926C40.943 13.543 41.416 14.046 42.158 14.046C42.735 14.046 43.08 13.759 43.187 13.527L43.204 13.494L44.072 13.49L44.064 13.528C43.915 14.121 43.292 14.785 42.138 14.785C40.818 14.785 40.021 13.884 40.021 12.457ZM40.939 12.038H43.23C43.159 11.232 42.707 10.843 42.097 10.843C41.482 10.842 41.018 11.261 40.939 12.038Z" fill="white"/>
<path d="M45.079 13.519V13.515H45.98L45.984 13.519C46.096 13.859 46.424 14.087 46.96 14.087C47.516 14.087 47.902 13.834 47.902 13.465V13.456C47.902 13.174 47.691 12.983 47.167 12.863L46.449 12.697C45.598 12.502 45.204 12.116 45.204 11.456V11.452C45.204 10.667 45.934 10.103 46.955 10.103C47.984 10.103 48.644 10.618 48.723 11.353V11.357H47.864V11.348C47.777 11.033 47.458 10.796 46.951 10.796C46.457 10.796 46.1 11.041 46.1 11.402V11.41C46.1 11.692 46.308 11.867 46.814 11.987L47.528 12.149C48.395 12.353 48.81 12.722 48.81 13.373V13.382C48.81 14.216 48.013 14.784 46.943 14.784C45.855 14.785 45.166 14.275 45.079 13.519Z" fill="white"/>
<path d="M49.771 12.432V12.424C49.771 10.996 50.572 10.104 51.888 10.104C53.021 10.104 53.698 10.744 53.822 11.619V11.64L52.959 11.644L52.955 11.631C52.855 11.187 52.49 10.855 51.893 10.855C51.142 10.855 50.69 11.453 50.69 12.424V12.432C50.69 13.428 51.15 14.034 51.893 14.034C52.457 14.034 52.806 13.777 52.952 13.291L52.96 13.27H53.823L53.815 13.307C53.653 14.183 53.01 14.785 51.893 14.785C50.577 14.785 49.771 13.888 49.771 12.432Z" fill="white"/>
<path d="M54.692 13.432V13.423C54.692 12.618 55.298 12.149 56.373 12.083L57.593 12.012V11.614C57.593 11.12 57.282 10.846 56.672 10.846C56.174 10.846 55.846 11.029 55.738 11.348L55.734 11.365H54.867L54.871 11.336C54.979 10.597 55.689 10.103 56.714 10.103C57.847 10.103 58.486 10.667 58.486 11.614V14.698H57.593V14.059H57.523C57.257 14.516 56.784 14.773 56.187 14.773C55.328 14.773 54.692 14.25 54.692 13.432ZM56.427 14.054C57.099 14.054 57.593 13.615 57.593 13.033V12.647L56.493 12.718C55.87 12.755 55.588 12.979 55.588 13.386V13.394C55.589 13.81 55.942 14.054 56.427 14.054Z" fill="white"/>
<path d="M59.867 10.191H60.767V10.872H60.833C60.995 10.395 61.414 10.113 62.016 10.113C62.161 10.113 62.319 10.134 62.41 10.154V10.984C62.248 10.951 62.095 10.93 61.925 10.93C61.236 10.93 60.767 11.353 60.767 12.005V14.698H59.867V10.191Z" fill="white"/>
<path d="M63.447 10.191H64.347V10.872H64.413C64.575 10.395 64.994 10.113 65.596 10.113C65.741 10.113 65.899 10.134 65.99 10.154V10.984C65.828 10.951 65.675 10.93 65.505 10.93C64.816 10.93 64.347 11.353 64.347 12.005V14.698H63.447V10.191Z" fill="white"/>
<path d="M66.62 12.457V12.453C66.62 11.046 67.433 10.103 68.691 10.103C69.949 10.103 70.721 11.012 70.721 12.365V12.68H67.525C67.542 13.543 68.015 14.046 68.757 14.046C69.334 14.046 69.679 13.759 69.786 13.527L69.803 13.494L70.671 13.49L70.663 13.528C70.514 14.121 69.891 14.785 68.737 14.785C67.417 14.785 66.62 13.884 66.62 12.457ZM67.538 12.038H69.829C69.758 11.232 69.306 10.843 68.696 10.843C68.081 10.842 67.616 11.261 67.538 12.038Z" fill="white"/>
<path d="M71.848 15.034L71.856 15.026H72.765L72.769 15.034C72.844 15.346 73.209 15.565 73.819 15.565C74.562 15.565 75.002 15.216 75.002 14.602V13.714H74.936C74.662 14.203 74.164 14.478 73.545 14.478C72.387 14.478 71.673 13.585 71.673 12.315V12.307C71.673 11.02 72.391 10.112 73.562 10.112C74.193 10.112 74.683 10.423 74.944 10.929H74.998V10.19H75.894V14.606C75.894 15.631 75.085 16.287 73.807 16.287C72.662 16.288 71.956 15.785 71.848 15.034ZM75.019 12.311V12.303C75.019 11.464 74.554 10.875 73.794 10.875C73.026 10.875 72.595 11.464 72.595 12.303V12.311C72.595 13.15 73.027 13.735 73.794 13.735C74.558 13.735 75.019 13.154 75.019 12.311Z" fill="white"/>
<path d="M77.043 13.432V13.423C77.043 12.618 77.649 12.149 78.724 12.083L79.944 12.012V11.614C79.944 11.12 79.633 10.846 79.023 10.846C78.525 10.846 78.197 11.029 78.089 11.348L78.085 11.365H77.218L77.222 11.336C77.33 10.597 78.04 10.103 79.065 10.103C80.198 10.103 80.837 10.667 80.837 11.614V14.698H79.944V14.059H79.874C79.608 14.516 79.135 14.773 78.538 14.773C77.678 14.773 77.043 14.25 77.043 13.432ZM78.778 14.054C79.45 14.054 79.944 13.615 79.944 13.033V12.647L78.844 12.718C78.221 12.755 77.939 12.979 77.939 13.386V13.394C77.939 13.81 78.292 14.054 78.778 14.054Z" fill="white"/>
<path d="M82.217 10.191H83.117V10.872H83.183C83.345 10.395 83.764 10.113 84.366 10.113C84.512 10.113 84.67 10.134 84.761 10.154V10.984C84.599 10.951 84.446 10.93 84.276 10.93C83.588 10.93 83.118 11.353 83.118 12.005V14.698H82.218L82.217 10.191Z" fill="white"/>
<path d="M87.904 13.432V13.423C87.904 12.618 88.51 12.149 89.586 12.083L90.806 12.012V11.614C90.806 11.12 90.494 10.846 89.885 10.846C89.387 10.846 89.059 11.029 88.951 11.348L88.946 11.365H88.079L88.083 11.336C88.191 10.597 88.9 10.103 89.926 10.103C91.059 10.103 91.698 10.667 91.698 11.614V14.698H90.805V14.059H90.735C90.469 14.516 89.996 14.773 89.398 14.773C88.54 14.773 87.904 14.25 87.904 13.432ZM89.639 14.054C90.312 14.054 90.805 13.615 90.805 13.033V12.647L89.705 12.718C89.083 12.755 88.8 12.979 88.8 13.386V13.394C88.8 13.81 89.154 14.054 89.639 14.054Z" fill="white"/>
<path d="M17.1064 19.4029L8.08438 28.9756C8.36394 30.0176 9.31274 30.78 10.4394 30.78C10.8884 30.78 11.312 30.6614 11.6763 30.4411L11.7017 30.4242L21.8504 24.5705L17.098 19.3944L17.1064 19.4029Z" fill="#EA4335"/>
<path d="M26.2303 17.7765H26.2218L21.8421 15.2266L16.9032 19.6232L21.859 24.579L26.2218 22.063C26.9842 21.6479 27.501 20.8431 27.501 19.9197C27.501 18.9963 26.9927 18.1916 26.2303 17.7849V17.7765Z" fill="#FBBC04"/>
<path d="M8.08471 10.813C8.03388 11.0163 8 11.2196 8 11.4399V28.3573C8 28.5775 8.02541 28.7808 8.08471 28.9841L17.4117 19.6571L8.08471 10.813Z" fill="#4285F4"/>
<path d="M17.1742 19.8942L21.8421 15.2266L11.7017 9.34733C11.3374 9.12707 10.9054 9 10.4394 9C9.31274 9 8.36394 9.7709 8.08438 10.8044L17.1742 19.8858V19.8942Z" fill="#34A853"/>
<path d="M61.1 21.7C58.75 21.7 56.83 23.49 56.83 25.95C56.83 28.41 58.75 30.2 61.1 30.2C63.45 30.2 65.37 28.4 65.37 25.95C65.37 23.5 63.45 21.7 61.1 21.7ZM61.1 28.53C59.81 28.53 58.7 27.47 58.7 25.95C58.7 24.43 59.81 23.37 61.1 23.37C62.39 23.37 63.5 24.42 63.5 25.95C63.5 27.48 62.39 28.53 61.1 28.53ZM51.78 21.7C49.43 21.7 47.51 23.49 47.51 25.95C47.51 28.41 49.43 30.2 51.78 30.2C54.13 30.2 56.05 28.4 56.05 25.95C56.05 23.5 54.13 21.7 51.78 21.7ZM51.78 28.53C50.49 28.53 49.38 27.47 49.38 25.95C49.38 24.43 50.49 23.37 51.78 23.37C53.07 23.37 54.18 24.42 54.18 25.95C54.18 27.48 53.07 28.53 51.78 28.53ZM40.7 23.01V24.8101H45.02C44.89 25.8301 44.55 26.57 44.04 27.08C43.41 27.71 42.43 28.4001 40.71 28.4001C38.05 28.4001 35.97 26.26 35.97 23.6C35.97 20.94 38.05 18.8 40.71 18.8C42.14 18.8 43.19 19.36 43.96 20.09L45.23 18.8201C44.15 17.7901 42.72 17 40.7 17C37.06 17 34 19.96 34 23.61C34 27.26 37.06 30.2201 40.7 30.2201C42.67 30.2201 44.15 29.58 45.31 28.37C46.5 27.18 46.87 25.5001 46.87 24.1501C46.87 23.7301 46.84 23.34 46.77 23.02H40.7V23.01ZM86.01 24.41C85.66 23.46 84.58 21.7 82.37 21.7C80.16 21.7 78.36 23.42 78.36 25.95C78.36 28.33 80.16 30.2 82.58 30.2C84.53 30.2 85.66 29.0101 86.12 28.3201L84.67 27.35C84.19 28.06 83.53 28.53 82.58 28.53C81.63 28.53 80.95 28.0901 80.52 27.2401L86.21 24.8901L86.02 24.41H86.01ZM80.21 25.83C80.16 24.19 81.48 23.35 82.43 23.35C83.17 23.35 83.8 23.72 84.01 24.25L80.21 25.83ZM75.59 29.95H77.46V17.45H75.59V29.95ZM72.53 22.6501H72.47C72.05 22.1501 71.25 21.7 70.23 21.7C68.1 21.7 66.15 23.57 66.15 25.9701C66.15 28.3701 68.1 30.21 70.23 30.21C71.25 30.21 72.05 29.7601 72.47 29.2401H72.53V29.85C72.53 31.48 71.66 32.3501 70.26 32.3501C69.12 32.3501 68.41 31.53 68.12 30.84L66.49 31.52C66.96 32.65 68.2 34.0301 70.26 34.0301C72.45 34.0301 74.3 32.74 74.3 29.6V21.96H72.53V22.6501ZM70.38 28.53C69.09 28.53 68.01 27.4501 68.01 25.9701C68.01 24.4901 69.09 23.38 70.38 23.38C71.67 23.38 72.65 24.4801 72.65 25.9701C72.65 27.4601 71.65 28.53 70.38 28.53ZM90.3 17.45V29.95H92.17V25.21H94.78C96.85 25.21 98.88 23.71 98.88 21.33C98.88 18.95 96.85 17.45 94.78 17.45H90.3ZM94.81 23.4701H92.16V19.18H94.81C96.21 19.18 97 20.3401 97 21.3201C97 22.3001 96.21 23.46 94.81 23.46V23.4701ZM106.35 21.68C105 21.68 103.6 22.28 103.02 23.59L104.68 24.28C105.03 23.59 105.69 23.36 106.38 23.36C107.34 23.36 108.33 23.9401 108.34 24.9701V25.1C108 24.91 107.28 24.62 106.39 24.62C104.6 24.62 102.79 25.6 102.79 27.43C102.79 29.1 104.25 30.18 105.89 30.18C107.14 30.18 107.84 29.62 108.27 28.96H108.33V29.93H110.13V25.1401C110.13 22.9201 108.47 21.68 106.33 21.68H106.35ZM106.12 28.53C105.51 28.53 104.66 28.2201 104.66 27.4701C104.66 26.5101 105.72 26.1401 106.64 26.1401C107.46 26.1401 107.85 26.3201 108.34 26.5601C108.2 27.7201 107.2 28.54 106.12 28.54V28.53ZM116.7 21.95L114.56 27.37H114.5L112.28 21.95H110.27L113.6 29.53L111.7 33.7401H113.65L118.78 21.95H116.7ZM99.9 29.95H101.77V17.45H99.9V29.95Z" fill="white"/>
</g>
<defs>
<clipPath id="clip0_81_2212">
<rect width="126.332" height="40" fill="white"/>
</clipPath>
</defs>
</svg>
