<svg width="1024" height="1024" viewBox="0 0 1024 1024" fill="none" xmlns="http://www.w3.org/2000/svg">
<path d="M0 352C0 228.788 0 167.183 23.9786 120.122C45.0707 78.7264 78.7264 45.0707 120.122 23.9786C167.183 0 228.788 0 352 0H672C795.212 0 856.817 0 903.878 23.9786C945.274 45.0707 978.929 78.7264 1000.02 120.122C1024 167.183 1024 228.788 1024 352V672C1024 795.212 1024 856.817 1000.02 903.878C978.929 945.274 945.274 978.929 903.878 1000.02C856.817 1024 795.212 1024 672 1024H352C228.788 1024 167.183 1024 120.122 1000.02C78.7264 978.929 45.0707 945.274 23.9786 903.878C0 856.817 0 795.212 0 672V352Z" fill="#F43F5E"/>
<path d="M371.377 225C313.2 225 266 273.238 266 332.695V619.883C266 673.73 304.638 718.267 355.022 726.344L304.528 777.947C296.845 785.801 302.333 799.375 313.2 799.375H356.778C366.108 799.375 374.999 795.56 381.586 788.83L441.628 727.578H582.131L642.064 788.83C648.65 795.56 657.541 799.375 666.871 799.375H710.559C721.535 799.375 727.024 785.801 719.231 777.947L668.737 726.344C719.231 718.379 757.759 673.73 757.759 619.883V332.695C757.759 273.238 710.559 225 652.382 225H371.377ZM336.251 368.594C336.251 348.738 351.948 332.695 371.377 332.695H459.191C478.62 332.695 494.317 348.738 494.317 368.594V476.289C494.317 496.145 478.62 512.187 459.191 512.187H371.377C351.948 512.187 336.251 496.145 336.251 476.289V368.594ZM564.568 332.695H652.382C671.811 332.695 687.508 348.738 687.508 368.594V476.289C687.508 496.145 671.811 512.187 652.382 512.187H564.568C545.139 512.187 529.442 496.145 529.442 476.289V368.594C529.442 348.738 545.139 332.695 564.568 332.695ZM336.251 619.883C336.251 610.361 339.952 601.231 346.54 594.498C353.126 587.766 362.061 583.984 371.377 583.984C380.692 583.984 389.627 587.766 396.215 594.498C402.802 601.231 406.502 610.361 406.502 619.883C406.502 629.404 402.802 638.534 396.215 645.267C389.627 651.999 380.692 655.781 371.377 655.781C362.061 655.781 353.126 651.999 346.54 645.267C339.952 638.534 336.251 629.404 336.251 619.883ZM652.382 583.984C661.698 583.984 670.633 587.766 677.219 594.498C683.807 601.231 687.508 610.361 687.508 619.883C687.508 629.404 683.807 638.534 677.219 645.267C670.633 651.999 661.698 655.781 652.382 655.781C643.067 655.781 634.132 651.999 627.544 645.267C620.957 638.534 617.257 629.404 617.257 619.883C617.257 610.361 620.957 601.231 627.544 594.498C634.132 587.766 643.067 583.984 652.382 583.984Z" fill="#FFE4E6"/>
</svg>
