<svg width="2001" height="2001" viewBox="0 0 2001 2001" fill="none" xmlns="http://www.w3.org/2000/svg">
<path d="M690 0H621V69H690V0Z" fill="black"/>
<path d="M828 0H759V69H828V0Z" fill="black"/>
<path d="M966 0H897V69H966V0Z" fill="black"/>
<path d="M1173 0H1104V69H1173V0Z" fill="black"/>
<path d="M1380 0H1311V69H1380V0Z" fill="black"/>
<path d="M621 69H552V138H621V69Z" fill="black"/>
<path d="M690 69H621V138H690V69Z" fill="black"/>
<path d="M759 69H690V138H759V69Z" fill="black"/>
<path d="M828 69H759V138H828V69Z" fill="black"/>
<path d="M1035 69H966V138H1035V69Z" fill="black"/>
<path d="M1104 69H1035V138H1104V69Z" fill="black"/>
<path d="M1173 69H1104V138H1173V69Z" fill="black"/>
<path d="M1242 69H1173V138H1242V69Z" fill="black"/>
<path d="M1311 69H1242V138H1311V69Z" fill="black"/>
<path d="M1380 69H1311V138H1380V69Z" fill="black"/>
<path d="M1449 69H1380V138H1449V69Z" fill="black"/>
<path d="M897 138H828V207H897V138Z" fill="black"/>
<path d="M966 138H897V207H966V138Z" fill="black"/>
<path d="M1035 138H966V207H1035V138Z" fill="black"/>
<path d="M1173 138H1104V207H1173V138Z" fill="black"/>
<path d="M1311 138H1242V207H1311V138Z" fill="black"/>
<path d="M1449 138H1380V207H1449V138Z" fill="black"/>
<path d="M759 207H690V276H759V207Z" fill="black"/>
<path d="M828 207H759V276H828V207Z" fill="black"/>
<path d="M897 207H828V276H897V207Z" fill="black"/>
<path d="M966 207H897V276H966V207Z" fill="black"/>
<path d="M1035 207H966V276H1035V207Z" fill="black"/>
<path d="M1104 207H1035V276H1104V207Z" fill="black"/>
<path d="M1380 207H1311V276H1380V207Z" fill="black"/>
<path d="M621 276H552V345H621V276Z" fill="black"/>
<path d="M690 276H621V345H690V276Z" fill="black"/>
<path d="M897 276H828V345H897V276Z" fill="black"/>
<path d="M1035 276H966V345H1035V276Z" fill="black"/>
<path d="M1242 276H1173V345H1242V276Z" fill="black"/>
<path d="M1311 276H1242V345H1311V276Z" fill="black"/>
<path d="M1380 276H1311V345H1380V276Z" fill="black"/>
<path d="M759 345H690V414H759V345Z" fill="black"/>
<path d="M828 345H759V414H828V345Z" fill="black"/>
<path d="M897 345H828V414H897V345Z" fill="black"/>
<path d="M966 345H897V414H966V345Z" fill="black"/>
<path d="M1311 345H1242V414H1311V345Z" fill="black"/>
<path d="M1380 345H1311V414H1380V345Z" fill="black"/>
<path d="M1449 345H1380V414H1449V345Z" fill="black"/>
<path d="M621 414H552V483H621V414Z" fill="black"/>
<path d="M759 414H690V483H759V414Z" fill="black"/>
<path d="M897 414H828V483H897V414Z" fill="black"/>
<path d="M1035 414H966V483H1035V414Z" fill="black"/>
<path d="M1173 414H1104V483H1173V414Z" fill="black"/>
<path d="M1311 414H1242V483H1311V414Z" fill="black"/>
<path d="M1449 414H1380V483H1449V414Z" fill="black"/>
<path d="M690 483H621V552H690V483Z" fill="black"/>
<path d="M759 483H690V552H759V483Z" fill="black"/>
<path d="M828 483H759V552H828V483Z" fill="black"/>
<path d="M966 483H897V552H966V483Z" fill="black"/>
<path d="M1035 483H966V552H1035V483Z" fill="black"/>
<path d="M1173 483H1104V552H1173V483Z" fill="black"/>
<path d="M1242 483H1173V552H1242V483Z" fill="black"/>
<path d="M1311 483H1242V552H1311V483Z" fill="black"/>
<path d="M69 552H0V621H69V552Z" fill="black"/>
<path d="M207 552H138V621H207V552Z" fill="black"/>
<path d="M345 552H276V621H345V552Z" fill="black"/>
<path d="M483 552H414V621H483V552Z" fill="black"/>
<path d="M690 552H621V621H690V552Z" fill="black"/>
<path d="M759 552H690V621H759V552Z" fill="black"/>
<path d="M897 552H828V621H897V552Z" fill="black"/>
<path d="M1035 552H966V621H1035V552Z" fill="black"/>
<path d="M1104 552H1035V621H1104V552Z" fill="black"/>
<path d="M1242 552H1173V621H1242V552Z" fill="black"/>
<path d="M1449 552H1380V621H1449V552Z" fill="black"/>
<path d="M1725 552H1656V621H1725V552Z" fill="black"/>
<path d="M1932 552H1863V621H1932V552Z" fill="black"/>
<path d="M138 621H69V690H138V621Z" fill="black"/>
<path d="M207 621H138V690H207V621Z" fill="black"/>
<path d="M414 621H345V690H414V621Z" fill="black"/>
<path d="M621 621H552V690H621V621Z" fill="black"/>
<path d="M690 621H621V690H690V621Z" fill="black"/>
<path d="M897 621H828V690H897V621Z" fill="black"/>
<path d="M1035 621H966V690H1035V621Z" fill="black"/>
<path d="M1104 621H1035V690H1104V621Z" fill="black"/>
<path d="M1242 621H1173V690H1242V621Z" fill="black"/>
<path d="M1449 621H1380V690H1449V621Z" fill="black"/>
<path d="M1587 621H1518V690H1587V621Z" fill="black"/>
<path d="M1794 621H1725V690H1794V621Z" fill="black"/>
<path d="M2001 621H1932V690H2001V621Z" fill="black"/>
<path d="M276 690H207V759H276V690Z" fill="black"/>
<path d="M483 690H414V759H483V690Z" fill="black"/>
<path d="M621 690H552V759H621V690Z" fill="black"/>
<path d="M759 690H690V759H759V690Z" fill="black"/>
<path d="M828 690H759V759H828V690Z" fill="black"/>
<path d="M966 690H897V759H966V690Z" fill="black"/>
<path d="M1449 690H1380V759H1449V690Z" fill="black"/>
<path d="M1587 690H1518V759H1587V690Z" fill="black"/>
<path d="M1863 690H1794V759H1863V690Z" fill="black"/>
<path d="M1932 690H1863V759H1932V690Z" fill="black"/>
<path d="M2001 690H1932V759H2001V690Z" fill="black"/>
<path d="M345 759H276V828H345V759Z" fill="black"/>
<path d="M552 759H483V828H552V759Z" fill="black"/>
<path d="M759 759H690V828H759V759Z" fill="black"/>
<path d="M828 759H759V828H828V759Z" fill="black"/>
<path d="M897 759H828V828H897V759Z" fill="black"/>
<path d="M1104 759H1035V828H1104V759Z" fill="black"/>
<path d="M1242 759H1173V828H1242V759Z" fill="black"/>
<path d="M1449 759H1380V828H1449V759Z" fill="black"/>
<path d="M1587 759H1518V828H1587V759Z" fill="black"/>
<path d="M1725 759H1656V828H1725V759Z" fill="black"/>
<path d="M1932 759H1863V828H1932V759Z" fill="black"/>
<path d="M69 828H0V897H69V828Z" fill="black"/>
<path d="M276 828H207V897H276V828Z" fill="black"/>
<path d="M483 828H414V897H483V828Z" fill="black"/>
<path d="M621 828H552V897H621V828Z" fill="black"/>
<path d="M1173 828H1104V897H1173V828Z" fill="black"/>
<path d="M1242 828H1173V897H1242V828Z" fill="black"/>
<path d="M1380 828H1311V897H1380V828Z" fill="black"/>
<path d="M1449 828H1380V897H1449V828Z" fill="black"/>
<path d="M1518 828H1449V897H1518V828Z" fill="black"/>
<path d="M1587 828H1518V897H1587V828Z" fill="black"/>
<path d="M1794 828H1725V897H1794V828Z" fill="black"/>
<path d="M1932 828H1863V897H1932V828Z" fill="black"/>
<path d="M2001 828H1932V897H2001V828Z" fill="black"/>
<path d="M138 897H69V966H138V897Z" fill="black"/>
<path d="M207 897H138V966H207V897Z" fill="black"/>
<path d="M276 897H207V966H276V897Z" fill="black"/>
<path d="M345 897H276V966H345V897Z" fill="black"/>
<path d="M690 897H621V966H690V897Z" fill="black"/>
<path d="M759 897H690V966H759V897Z" fill="black"/>
<path d="M897 897H828V966H897V897Z" fill="black"/>
<path d="M966 897H897V966H966V897Z" fill="black"/>
<path d="M1104 897H1035V966H1104V897Z" fill="black"/>
<path d="M1173 897H1104V966H1173V897Z" fill="black"/>
<path d="M1587 897H1518V966H1587V897Z" fill="black"/>
<path d="M1794 897H1725V966H1794V897Z" fill="black"/>
<path d="M2001 897H1932V966H2001V897Z" fill="black"/>
<path d="M207 966H138V1035H207V966Z" fill="black"/>
<path d="M345 966H276V1035H345V966Z" fill="black"/>
<path d="M414 966H345V1035H414V966Z" fill="black"/>
<path d="M483 966H414V1035H483V966Z" fill="black"/>
<path d="M897 966H828V1035H897V966Z" fill="black"/>
<path d="M1035 966H966V1035H1035V966Z" fill="black"/>
<path d="M1104 966H1035V1035H1104V966Z" fill="black"/>
<path d="M1173 966H1104V1035H1173V966Z" fill="black"/>
<path d="M1242 966H1173V1035H1242V966Z" fill="black"/>
<path d="M1587 966H1518V1035H1587V966Z" fill="black"/>
<path d="M1656 966H1587V1035H1656V966Z" fill="black"/>
<path d="M1725 966H1656V1035H1725V966Z" fill="black"/>
<path d="M1794 966H1725V1035H1794V966Z" fill="black"/>
<path d="M1932 966H1863V1035H1932V966Z" fill="black"/>
<path d="M2001 966H1932V1035H2001V966Z" fill="black"/>
<path d="M207 1035H138V1104H207V1035Z" fill="black"/>
<path d="M276 1035H207V1104H276V1035Z" fill="black"/>
<path d="M345 1035H276V1104H345V1035Z" fill="black"/>
<path d="M621 1035H552V1104H621V1035Z" fill="black"/>
<path d="M828 1035H759V1104H828V1035Z" fill="black"/>
<path d="M966 1035H897V1104H966V1035Z" fill="black"/>
<path d="M1035 1035H966V1104H1035V1035Z" fill="black"/>
<path d="M1173 1035H1104V1104H1173V1035Z" fill="black"/>
<path d="M1242 1035H1173V1104H1242V1035Z" fill="black"/>
<path d="M1311 1035H1242V1104H1311V1035Z" fill="black"/>
<path d="M1380 1035H1311V1104H1380V1035Z" fill="black"/>
<path d="M1449 1035H1380V1104H1449V1035Z" fill="black"/>
<path d="M1518 1035H1449V1104H1518V1035Z" fill="black"/>
<path d="M1656 1035H1587V1104H1656V1035Z" fill="black"/>
<path d="M1794 1035H1725V1104H1794V1035Z" fill="black"/>
<path d="M1932 1035H1863V1104H1932V1035Z" fill="black"/>
<path d="M69 1104H0V1173H69V1104Z" fill="black"/>
<path d="M345 1104H276V1173H345V1104Z" fill="black"/>
<path d="M483 1104H414V1173H483V1104Z" fill="black"/>
<path d="M552 1104H483V1173H552V1104Z" fill="black"/>
<path d="M759 1104H690V1173H759V1104Z" fill="black"/>
<path d="M828 1104H759V1173H828V1104Z" fill="black"/>
<path d="M1035 1104H966V1173H1035V1104Z" fill="black"/>
<path d="M1104 1104H1035V1173H1104V1104Z" fill="black"/>
<path d="M1173 1104H1104V1173H1173V1104Z" fill="black"/>
<path d="M1242 1104H1173V1173H1242V1104Z" fill="black"/>
<path d="M1380 1104H1311V1173H1380V1104Z" fill="black"/>
<path d="M1449 1104H1380V1173H1449V1104Z" fill="black"/>
<path d="M1518 1104H1449V1173H1518V1104Z" fill="black"/>
<path d="M1587 1104H1518V1173H1587V1104Z" fill="black"/>
<path d="M1794 1104H1725V1173H1794V1104Z" fill="black"/>
<path d="M1932 1104H1863V1173H1932V1104Z" fill="black"/>
<path d="M2001 1104H1932V1173H2001V1104Z" fill="black"/>
<path d="M138 1173H69V1242H138V1173Z" fill="black"/>
<path d="M207 1173H138V1242H207V1173Z" fill="black"/>
<path d="M345 1173H276V1242H345V1173Z" fill="black"/>
<path d="M552 1173H483V1242H552V1173Z" fill="black"/>
<path d="M690 1173H621V1242H690V1173Z" fill="black"/>
<path d="M828 1173H759V1242H828V1173Z" fill="black"/>
<path d="M897 1173H828V1242H897V1173Z" fill="black"/>
<path d="M1035 1173H966V1242H1035V1173Z" fill="black"/>
<path d="M1104 1173H1035V1242H1104V1173Z" fill="black"/>
<path d="M1242 1173H1173V1242H1242V1173Z" fill="black"/>
<path d="M1311 1173H1242V1242H1311V1173Z" fill="black"/>
<path d="M1449 1173H1380V1242H1449V1173Z" fill="black"/>
<path d="M1518 1173H1449V1242H1518V1173Z" fill="black"/>
<path d="M1587 1173H1518V1242H1587V1173Z" fill="black"/>
<path d="M1794 1173H1725V1242H1794V1173Z" fill="black"/>
<path d="M1863 1173H1794V1242H1863V1173Z" fill="black"/>
<path d="M2001 1173H1932V1242H2001V1173Z" fill="black"/>
<path d="M69 1242H0V1311H69V1242Z" fill="black"/>
<path d="M345 1242H276V1311H345V1242Z" fill="black"/>
<path d="M414 1242H345V1311H414V1242Z" fill="black"/>
<path d="M483 1242H414V1311H483V1242Z" fill="black"/>
<path d="M552 1242H483V1311H552V1242Z" fill="black"/>
<path d="M621 1242H552V1311H621V1242Z" fill="black"/>
<path d="M690 1242H621V1311H690V1242Z" fill="black"/>
<path d="M966 1242H897V1311H966V1242Z" fill="black"/>
<path d="M1173 1242H1104V1311H1173V1242Z" fill="black"/>
<path d="M1242 1242H1173V1311H1242V1242Z" fill="black"/>
<path d="M1518 1242H1449V1311H1518V1242Z" fill="black"/>
<path d="M1932 1242H1863V1311H1932V1242Z" fill="black"/>
<path d="M2001 1242H1932V1311H2001V1242Z" fill="black"/>
<path d="M138 1311H69V1380H138V1311Z" fill="black"/>
<path d="M276 1311H207V1380H276V1311Z" fill="black"/>
<path d="M345 1311H276V1380H345V1311Z" fill="black"/>
<path d="M552 1311H483V1380H552V1311Z" fill="black"/>
<path d="M621 1311H552V1380H621V1311Z" fill="black"/>
<path d="M828 1311H759V1380H828V1311Z" fill="black"/>
<path d="M1104 1311H1035V1380H1104V1311Z" fill="black"/>
<path d="M1173 1311H1104V1380H1173V1311Z" fill="black"/>
<path d="M1242 1311H1173V1380H1242V1311Z" fill="black"/>
<path d="M1311 1311H1242V1380H1311V1311Z" fill="black"/>
<path d="M1380 1311H1311V1380H1380V1311Z" fill="black"/>
<path d="M1587 1311H1518V1380H1587V1311Z" fill="black"/>
<path d="M1656 1311H1587V1380H1656V1311Z" fill="black"/>
<path d="M1794 1311H1725V1380H1794V1311Z" fill="black"/>
<path d="M1932 1311H1863V1380H1932V1311Z" fill="black"/>
<path d="M69 1380H0V1449H69V1380Z" fill="black"/>
<path d="M276 1380H207V1449H276V1380Z" fill="black"/>
<path d="M345 1380H276V1449H345V1380Z" fill="black"/>
<path d="M483 1380H414V1449H483V1380Z" fill="black"/>
<path d="M690 1380H621V1449H690V1380Z" fill="black"/>
<path d="M897 1380H828V1449H897V1380Z" fill="black"/>
<path d="M1173 1380H1104V1449H1173V1380Z" fill="black"/>
<path d="M1242 1380H1173V1449H1242V1380Z" fill="black"/>
<path d="M1449 1380H1380V1449H1449V1380Z" fill="black"/>
<path d="M1518 1380H1449V1449H1518V1380Z" fill="black"/>
<path d="M1587 1380H1518V1449H1587V1380Z" fill="black"/>
<path d="M1656 1380H1587V1449H1656V1380Z" fill="black"/>
<path d="M1725 1380H1656V1449H1725V1380Z" fill="black"/>
<path d="M621 1449H552V1518H621V1449Z" fill="black"/>
<path d="M690 1449H621V1518H690V1449Z" fill="black"/>
<path d="M759 1449H690V1518H759V1449Z" fill="black"/>
<path d="M828 1449H759V1518H828V1449Z" fill="black"/>
<path d="M897 1449H828V1518H897V1449Z" fill="black"/>
<path d="M966 1449H897V1518H966V1449Z" fill="black"/>
<path d="M1173 1449H1104V1518H1173V1449Z" fill="black"/>
<path d="M1380 1449H1311V1518H1380V1449Z" fill="black"/>
<path d="M1449 1449H1380V1518H1449V1449Z" fill="black"/>
<path d="M1725 1449H1656V1518H1725V1449Z" fill="black"/>
<path d="M1863 1449H1794V1518H1863V1449Z" fill="black"/>
<path d="M1932 1449H1863V1518H1932V1449Z" fill="black"/>
<path d="M2001 1449H1932V1518H2001V1449Z" fill="black"/>
<path d="M690 1518H621V1587H690V1518Z" fill="black"/>
<path d="M759 1518H690V1587H759V1518Z" fill="black"/>
<path d="M897 1518H828V1587H897V1518Z" fill="black"/>
<path d="M1035 1518H966V1587H1035V1518Z" fill="black"/>
<path d="M1242 1518H1173V1587H1242V1518Z" fill="black"/>
<path d="M1380 1518H1311V1587H1380V1518Z" fill="black"/>
<path d="M1449 1518H1380V1587H1449V1518Z" fill="black"/>
<path d="M1587 1518H1518V1587H1587V1518Z" fill="black"/>
<path d="M1725 1518H1656V1587H1725V1518Z" fill="black"/>
<path d="M1794 1518H1725V1587H1794V1518Z" fill="black"/>
<path d="M1932 1518H1863V1587H1932V1518Z" fill="black"/>
<path d="M2001 1518H1932V1587H2001V1518Z" fill="black"/>
<path d="M690 1587H621V1656H690V1587Z" fill="black"/>
<path d="M759 1587H690V1656H759V1587Z" fill="black"/>
<path d="M828 1587H759V1656H828V1587Z" fill="black"/>
<path d="M966 1587H897V1656H966V1587Z" fill="black"/>
<path d="M1035 1587H966V1656H1035V1587Z" fill="black"/>
<path d="M1104 1587H1035V1656H1104V1587Z" fill="black"/>
<path d="M1242 1587H1173V1656H1242V1587Z" fill="black"/>
<path d="M1449 1587H1380V1656H1449V1587Z" fill="black"/>
<path d="M1725 1587H1656V1656H1725V1587Z" fill="black"/>
<path d="M1794 1587H1725V1656H1794V1587Z" fill="black"/>
<path d="M1932 1587H1863V1656H1932V1587Z" fill="black"/>
<path d="M621 1656H552V1725H621V1656Z" fill="black"/>
<path d="M828 1656H759V1725H828V1656Z" fill="black"/>
<path d="M1035 1656H966V1725H1035V1656Z" fill="black"/>
<path d="M1173 1656H1104V1725H1173V1656Z" fill="black"/>
<path d="M1242 1656H1173V1725H1242V1656Z" fill="black"/>
<path d="M1449 1656H1380V1725H1449V1656Z" fill="black"/>
<path d="M1518 1656H1449V1725H1518V1656Z" fill="black"/>
<path d="M1587 1656H1518V1725H1587V1656Z" fill="black"/>
<path d="M1656 1656H1587V1725H1656V1656Z" fill="black"/>
<path d="M1725 1656H1656V1725H1725V1656Z" fill="black"/>
<path d="M2001 1656H1932V1725H2001V1656Z" fill="black"/>
<path d="M690 1725H621V1794H690V1725Z" fill="black"/>
<path d="M759 1725H690V1794H759V1725Z" fill="black"/>
<path d="M966 1725H897V1794H966V1725Z" fill="black"/>
<path d="M1035 1725H966V1794H1035V1725Z" fill="black"/>
<path d="M1173 1725H1104V1794H1173V1725Z" fill="black"/>
<path d="M1380 1725H1311V1794H1380V1725Z" fill="black"/>
<path d="M1725 1725H1656V1794H1725V1725Z" fill="black"/>
<path d="M1863 1725H1794V1794H1863V1725Z" fill="black"/>
<path d="M1932 1725H1863V1794H1932V1725Z" fill="black"/>
<path d="M2001 1725H1932V1794H2001V1725Z" fill="black"/>
<path d="M621 1794H552V1863H621V1794Z" fill="black"/>
<path d="M690 1794H621V1863H690V1794Z" fill="black"/>
<path d="M759 1794H690V1863H759V1794Z" fill="black"/>
<path d="M828 1794H759V1863H828V1794Z" fill="black"/>
<path d="M897 1794H828V1863H897V1794Z" fill="black"/>
<path d="M1035 1794H966V1863H1035V1794Z" fill="black"/>
<path d="M1380 1794H1311V1863H1380V1794Z" fill="black"/>
<path d="M1449 1794H1380V1863H1449V1794Z" fill="black"/>
<path d="M1518 1794H1449V1863H1518V1794Z" fill="black"/>
<path d="M1656 1794H1587V1863H1656V1794Z" fill="black"/>
<path d="M1725 1794H1656V1863H1725V1794Z" fill="black"/>
<path d="M1794 1794H1725V1863H1794V1794Z" fill="black"/>
<path d="M2001 1794H1932V1863H2001V1794Z" fill="black"/>
<path d="M759 1863H690V1932H759V1863Z" fill="black"/>
<path d="M828 1863H759V1932H828V1863Z" fill="black"/>
<path d="M897 1863H828V1932H897V1863Z" fill="black"/>
<path d="M1035 1863H966V1932H1035V1863Z" fill="black"/>
<path d="M1173 1863H1104V1932H1173V1863Z" fill="black"/>
<path d="M1242 1863H1173V1932H1242V1863Z" fill="black"/>
<path d="M1449 1863H1380V1932H1449V1863Z" fill="black"/>
<path d="M1518 1863H1449V1932H1518V1863Z" fill="black"/>
<path d="M1656 1863H1587V1932H1656V1863Z" fill="black"/>
<path d="M1932 1863H1863V1932H1932V1863Z" fill="black"/>
<path d="M621 1932H552V2001H621V1932Z" fill="black"/>
<path d="M690 1932H621V2001H690V1932Z" fill="black"/>
<path d="M759 1932H690V2001H759V1932Z" fill="black"/>
<path d="M966 1932H897V2001H966V1932Z" fill="black"/>
<path d="M1035 1932H966V2001H1035V1932Z" fill="black"/>
<path d="M1104 1932H1035V2001H1104V1932Z" fill="black"/>
<path d="M1173 1932H1104V2001H1173V1932Z" fill="black"/>
<path d="M1242 1932H1173V2001H1242V1932Z" fill="black"/>
<path d="M1380 1932H1311V2001H1380V1932Z" fill="black"/>
<path d="M1449 1932H1380V2001H1449V1932Z" fill="black"/>
<path d="M1656 1932H1587V2001H1656V1932Z" fill="black"/>
<path d="M1725 1932H1656V2001H1725V1932Z" fill="black"/>
<path d="M1794 1932H1725V2001H1794V1932Z" fill="black"/>
<path d="M1932 1932H1863V2001H1932V1932Z" fill="black"/>
<path d="M2001 1932H1932V2001H2001V1932Z" fill="black"/>
<path d="M0 0V483H483V0H0ZM410.55 410.55H72.45V72.45H410.55V410.55Z" fill="black"/>
<path d="M1518 0V483H2001V0H1518ZM1928.55 410.55H1590.45V72.45H1928.55V410.55Z" fill="black"/>
<path d="M0 1518V2001H483V1518H0ZM410.55 1928.55H72.45V1590.45H410.55V1928.55Z" fill="black"/>
<path d="M345 138H138V345H345V138Z" fill="black"/>
<path d="M1863 138H1656V345H1863V138Z" fill="black"/>
<path d="M345 1656H138V1863H345V1656Z" fill="black"/>
</svg>
