<svg width="567" height="200" viewBox="0 0 567 200" fill="none" xmlns="http://www.w3.org/2000/svg">
<path d="M1.6344 137.908C1.6344 137.908 -14.8582 80.5484 56.9382 31.0774C101.294 0.510186 171.036 -9.153 214.435 9.49723C254.146 26.598 273.256 59.0528 260.057 102.495C246.885 145.937 179.704 200 111.567 200C43.4289 200 21.5607 163.319 21.5607 130.808C21.5607 69.0258 95.4961 35.585 95.4961 35.585C0.677501 64.2365 1.6344 137.908 1.6344 137.908Z" fill="#E30613"/>
<path d="M65.8882 86.9717H78.8909L68.0834 125.596H84.2383L95.0458 86.9717H108.02L111.567 74.2659H69.4625L65.8882 86.9717ZM102.589 125.596H117.955L126.765 94.0994C127.581 91.1976 127.75 90.4088 128.397 87.1971C128.116 92.5499 128.172 92.6344 128.116 96.7758L127.975 125.596H139.992L156.992 95.1981C159.046 91.4794 159.384 90.7469 161.354 86.9154C159.834 91.254 159.525 92.2118 158.371 95.987L150.096 125.596H165.491L179.817 74.3504H156.682L144.749 96.325C142.216 101.283 141.54 102.579 138.839 108.89C139.401 104.242 139.514 103.086 139.795 98.0154L140.105 74.3504H116.97L102.645 125.596H102.589ZM205.034 125.596C209.059 125.455 214.406 125.286 219.332 121.37C222.681 118.75 224.961 114.778 226.002 110.918C226.706 108.383 227.156 105.03 225.045 102.213C223.581 100.185 221.837 99.6776 219.895 99.0859C221.78 98.2971 223.244 97.7055 225.017 96.325C227.606 94.2966 230.083 91.1131 231.152 87.338C232.081 84.07 231.856 80.6611 230.139 78.4918C227.353 74.7167 221.471 74.4913 218.318 74.3504H188.007L173.681 125.596H205.034ZM210.466 85.1687C211.902 85.225 215.335 85.3941 214.181 89.62C212.971 93.9022 209.2 93.9022 207.68 93.9022H198.674L201.122 85.1969H210.466V85.1687ZM205.485 104.636C206.976 104.692 211.282 104.918 209.931 109.707C209.566 111.003 208.721 112.243 207.68 113.031C206.076 114.412 204.528 114.468 203.036 114.581H192.876L195.662 104.636H205.485Z" fill="white"/>
<path d="M303.371 45.7271H294.393V40.2053H318.907V45.7271H309.957V70.1246H303.371V45.7271ZM318.147 48.4599H323.804V52.4885H323.888C324.986 49.7558 327.913 47.8682 330.812 47.8682C331.234 47.8682 331.741 47.9528 332.106 48.0655V53.5873C331.572 53.4746 330.671 53.3619 329.967 53.3619C325.605 53.3619 324.113 56.5172 324.113 60.3205V70.0964H318.175V48.4035L318.147 48.4599ZM334.105 55.1368C334.442 49.5586 339.424 47.8682 344.293 47.8682C348.599 47.8682 353.806 48.8261 353.806 54.038V65.3071C353.806 67.2791 354.003 69.2512 354.566 70.1246H348.543C348.346 69.4484 348.177 68.7441 348.121 68.0398C346.235 70.0119 343.477 70.7162 340.831 70.7162C336.722 70.7162 333.457 68.6596 333.457 64.2083C333.457 59.3063 337.144 58.1231 340.831 57.616C344.49 57.0807 347.867 57.1934 347.867 54.7705C347.867 52.2068 346.122 51.8406 344.012 51.8406C341.76 51.8406 340.268 52.7703 340.071 55.1086H334.133L334.105 55.1368ZM347.839 59.5317C346.826 60.405 344.743 60.4614 342.886 60.7994C341.056 61.1939 339.368 61.8137 339.368 63.9829C339.368 66.1522 341.085 66.7439 343.026 66.7439C347.67 66.7439 347.839 63.0533 347.839 61.7573V59.5317ZM358.224 48.4599H363.882V51.4743H364.022C365.542 49.0515 368.131 47.8682 370.636 47.8682C376.969 47.8682 378.573 51.418 378.573 56.7989V70.1246H372.634V57.8695C372.634 54.2916 371.593 52.5449 368.807 52.5449C365.57 52.5449 364.191 54.3479 364.191 58.7429V70.0964H358.253V48.4035L358.224 48.4599ZM387.382 63.0814C387.41 65.6733 389.606 66.7439 391.942 66.7439C393.658 66.7439 395.825 66.0677 395.825 63.9829C395.825 62.1799 393.349 61.5601 389.071 60.6304C385.637 59.8698 382.204 58.6583 382.204 54.855C382.204 49.3332 386.988 47.8964 391.632 47.8964C396.276 47.8964 400.723 49.5023 401.173 54.8269H395.516C395.347 52.5167 393.574 51.8969 391.435 51.8969C390.084 51.8969 388.142 52.1505 388.142 53.8972C388.142 56.0383 391.491 56.32 394.897 57.137C398.387 57.9258 401.764 59.1936 401.764 63.2223C401.764 68.9413 396.811 70.7725 391.885 70.7725C386.96 70.7725 381.95 68.885 381.697 63.1378H387.354L387.382 63.0814ZM405.169 48.4599H410.826V51.2208H410.911C412.346 48.9106 414.682 47.8682 417.356 47.8682C424.139 47.8682 427.207 53.3619 427.207 59.5317C427.207 65.3071 424.026 70.7162 417.694 70.7162C415.104 70.7162 412.628 69.5893 411.192 67.4482H411.108V77.7593H405.169V48.4317V48.4599ZM421.268 59.3626C421.268 55.9256 419.889 52.3477 416.061 52.3477C412.234 52.3477 410.911 55.8411 410.911 59.3626C410.911 62.8842 412.262 66.2368 416.118 66.2368C419.973 66.2368 421.268 62.8842 421.268 59.3626ZM440.941 47.8682C447.78 47.8682 452.171 52.404 452.171 59.3063C452.171 66.2086 447.78 70.7162 440.941 70.7162C434.102 70.7162 429.768 66.1804 429.768 59.3063C429.768 52.4322 434.158 47.8682 440.941 47.8682ZM440.941 66.2368C444.994 66.2368 446.232 62.7434 446.232 59.3063C446.232 55.8692 445.022 52.3477 440.941 52.3477C436.86 52.3477 435.706 55.8411 435.706 59.3063C435.706 62.7715 436.916 66.2368 440.941 66.2368ZM455.717 48.4599H461.374V52.4885H461.458C462.556 49.7558 465.483 47.8682 468.382 47.8682C468.804 47.8682 469.311 47.9528 469.676 48.0655V53.5873C469.142 53.4746 468.241 53.3619 467.537 53.3619C463.175 53.3619 461.683 56.5172 461.683 60.3205V70.0964H455.745V48.4035L455.717 48.4599ZM480.4 48.4599H484.762V52.4322H480.4V63.1659C480.4 65.1662 480.906 65.6733 482.904 65.6733C483.552 65.6733 484.115 65.617 484.762 65.5043V70.1527C483.749 70.3218 482.454 70.3499 481.3 70.3499C477.641 70.3499 474.461 69.5048 474.461 65.1944V52.404H470.859V48.4317H474.461V41.9238H480.4V48.4599ZM492.192 63.0814C492.22 65.6733 494.415 66.7439 496.751 66.7439C498.468 66.7439 500.635 66.0677 500.635 63.9829C500.635 62.1799 498.159 61.5601 493.881 60.6304C490.447 59.8698 487.013 58.6583 487.013 54.855C487.013 49.3332 491.798 47.8964 496.442 47.8964C501.086 47.8964 505.533 49.5023 505.983 54.8269H500.326C500.157 52.5167 498.384 51.8969 496.245 51.8969C494.894 51.8969 492.952 52.1505 492.952 53.8972C492.952 56.0383 496.301 56.32 499.707 57.137C503.197 57.9258 506.574 59.1936 506.574 63.2223C506.574 68.9413 501.62 70.7725 496.695 70.7725C491.77 70.7725 486.76 68.885 486.507 63.1378H492.164L492.192 63.0814ZM296.757 85.6195H306.017L312.996 106.214H313.081L319.723 85.6195H328.982V115.567H322.819V94.353H322.734L315.389 115.567H310.323L303.005 94.5502H302.921V115.567H296.757V85.6195ZM338.777 106.185C338.946 109.961 340.803 111.679 344.096 111.679C346.488 111.679 348.402 110.214 348.796 108.862H354.031C352.342 113.989 348.796 116.159 343.899 116.159C337.06 116.159 332.838 111.454 332.838 104.749C332.838 98.0436 337.313 93.3106 343.899 93.3106C351.273 93.3106 354.819 99.5085 354.425 106.185H338.777ZM348.458 102.41C347.924 99.3958 346.629 97.79 343.73 97.79C339.959 97.79 338.861 100.72 338.777 102.41H348.458ZM364.923 93.874H369.285V97.8463H364.923V108.58C364.923 110.609 365.429 111.087 367.428 111.087C368.075 111.087 368.638 111.059 369.285 110.918V115.567C368.272 115.736 366.977 115.764 365.823 115.764C362.165 115.764 358.984 114.919 358.984 110.609V97.8182H355.382V93.8459H358.984V87.338H364.923V93.874ZM372.269 93.874H377.926V97.9027H378.01C379.108 95.17 382.035 93.2824 384.934 93.2824C385.356 93.2824 385.862 93.3669 386.228 93.4796V99.0014C385.693 98.8887 384.793 98.776 384.089 98.776C379.727 98.776 378.207 101.931 378.207 105.735V115.511H372.269V93.8177V93.874ZM398.781 93.3106C405.62 93.3106 410.01 97.8464 410.01 104.749C410.01 111.651 405.62 116.159 398.781 116.159C391.942 116.159 387.579 111.623 387.579 104.749C387.579 97.8745 391.97 93.3106 398.781 93.3106ZM398.781 111.679C402.833 111.679 404.072 108.214 404.072 104.777C404.072 101.34 402.862 97.8182 398.781 97.8182C394.7 97.8182 393.546 101.312 393.546 104.777C393.546 108.242 394.756 111.679 398.781 111.679ZM413.528 93.874H419.185V96.6349H419.27C420.705 94.3248 423.041 93.2824 425.715 93.2824C432.498 93.2824 435.565 98.776 435.565 104.946C435.565 110.721 432.385 116.13 426.053 116.13C423.463 116.13 420.987 115.003 419.551 112.862H419.467V123.173H413.528V93.8459V93.874ZM429.627 104.777C429.627 101.34 428.248 97.79 424.42 97.79C420.593 97.79 419.27 101.283 419.27 104.777C419.27 108.27 420.621 111.651 424.477 111.651C428.332 111.651 429.627 108.298 429.627 104.777ZM449.3 93.3106C456.139 93.3106 460.53 97.8464 460.53 104.749C460.53 111.651 456.139 116.159 449.3 116.159C442.461 116.159 438.127 111.623 438.127 104.749C438.127 97.8745 442.517 93.3106 449.3 93.3106ZM449.3 111.679C453.353 111.679 454.591 108.214 454.591 104.777C454.591 101.34 453.381 97.8182 449.3 97.8182C445.219 97.8182 444.065 101.312 444.065 104.777C444.065 108.242 445.275 111.679 449.3 111.679ZM464.132 85.6195H470.071V115.567H464.132V85.6195ZM480.512 90.5215H474.574V85.6195H480.512V90.5215ZM474.574 93.874H480.512V115.567H474.574V93.874ZM492.361 93.874H496.723V97.8463H492.361V108.58C492.361 110.609 492.868 111.087 494.866 111.087C495.513 111.087 496.076 111.059 496.695 110.918V115.567C495.682 115.736 494.387 115.764 493.205 115.764C489.575 115.764 486.366 114.919 486.366 110.609V97.8182H482.764V93.8459H486.366V87.338H492.305V93.8459L492.361 93.874ZM499.341 100.551C499.678 94.9727 504.66 93.3106 509.529 93.3106C513.835 93.3106 519.042 94.2684 519.042 99.4804V110.749C519.042 112.721 519.239 114.694 519.802 115.567H513.779C513.582 114.891 513.413 114.186 513.357 113.482C511.471 115.454 508.713 116.159 506.067 116.159C501.958 116.159 498.693 114.102 498.693 109.651C498.693 104.749 502.38 103.565 506.067 103.058C509.726 102.523 513.103 102.636 513.103 100.213C513.103 97.6491 511.33 97.2829 509.248 97.2829C506.996 97.2829 505.504 98.2126 505.307 100.551H499.341ZM513.075 104.946C512.062 105.819 509.979 105.876 508.122 106.214C506.292 106.58 504.604 107.228 504.604 109.397C504.604 111.566 506.321 112.158 508.263 112.158C512.906 112.158 513.075 108.467 513.075 107.171V104.946ZM523.461 93.874H529.118V96.8885H529.258C530.778 94.4656 533.367 93.2824 535.872 93.2824C542.205 93.2824 543.809 96.8321 543.809 102.213V115.567H537.87V103.312C537.87 99.7339 536.801 97.9872 534.043 97.9872C530.806 97.9872 529.427 99.7903 529.427 104.185V115.539H523.489V93.8459L523.461 93.874ZM552.618 108.524C552.646 111.116 554.842 112.186 557.178 112.186C558.894 112.186 561.062 111.51 561.062 109.425C561.062 107.622 558.585 107.002 554.307 106.073C550.873 105.312 547.44 104.101 547.44 100.297C547.44 94.7474 552.224 93.3387 556.868 93.3387C561.512 93.3387 565.959 94.9446 566.409 100.269H560.752C560.583 97.959 558.81 97.3392 556.671 97.3392C555.348 97.3392 553.378 97.5928 553.378 99.3395C553.378 101.481 556.727 101.762 560.133 102.579C563.623 103.368 567 104.636 567 108.665C567 114.355 562.047 116.215 557.121 116.215C552.196 116.215 547.186 114.327 546.933 108.58H552.59L552.618 108.524ZM311.589 158.22H311.505C310.126 160.558 307.705 161.573 304.919 161.573C298.389 161.573 295.209 155.966 295.209 149.966C295.209 143.965 298.446 138.725 304.806 138.725C307.367 138.725 309.872 139.823 311.223 141.965H311.308V131.062H317.246V161.009H311.589V158.22ZM306.382 143.204C302.47 143.204 301.148 146.557 301.148 150.135C301.148 153.713 302.696 157.093 306.382 157.093C310.323 157.093 311.505 153.656 311.505 150.078C311.505 146.5 310.238 143.204 306.382 143.204ZM326.478 151.6C326.646 155.375 328.504 157.093 331.797 157.093C334.189 157.093 336.103 155.628 336.497 154.276H341.732C340.071 159.403 336.497 161.573 331.6 161.573C324.761 161.573 320.539 156.868 320.539 150.163C320.539 143.458 325.014 138.697 331.6 138.697C338.974 138.697 342.548 144.895 342.126 151.571H326.506L326.478 151.6ZM336.159 147.824C335.625 144.81 334.302 143.204 331.431 143.204C327.66 143.204 326.562 146.134 326.478 147.824H336.159ZM357.071 131.062H371.143C376.828 131.062 380.684 132.893 380.684 138.471C380.684 141.401 379.22 143.458 376.631 144.725C380.29 145.768 382.119 148.585 382.119 152.304C382.119 158.389 376.969 160.981 371.565 160.981H357.071V131.034V131.062ZM363.656 143.176H370.327C372.634 143.176 374.351 142.134 374.351 139.626C374.351 136.781 372.184 136.189 369.82 136.189H363.656V143.204V143.176ZM363.656 155.882H370.692C373.282 155.882 375.561 155.037 375.561 151.938C375.561 148.839 373.648 147.655 370.833 147.655H363.656V155.882ZM385.356 145.993C385.693 140.415 390.675 138.725 395.544 138.725C399.85 138.725 405.057 139.683 405.057 144.895V156.192C405.057 158.164 405.282 160.136 405.817 161.009H399.794C399.597 160.333 399.428 159.629 399.372 158.924C397.486 160.897 394.728 161.601 392.082 161.601C387.973 161.601 384.708 159.544 384.708 155.093C384.708 150.191 388.395 149.008 392.082 148.501C395.713 147.937 399.118 148.078 399.118 145.655C399.118 143.091 397.373 142.725 395.263 142.725C393.011 142.725 391.547 143.655 391.322 145.993H385.356ZM399.09 150.388C398.077 151.262 395.994 151.318 394.137 151.656C392.307 152.05 390.619 152.67 390.619 154.839C390.619 157.009 392.336 157.6 394.278 157.6C398.921 157.6 399.09 153.91 399.09 152.614V150.388ZM409.476 139.316H415.133V143.345H415.217C416.315 140.612 419.242 138.725 422.141 138.725C422.563 138.725 423.069 138.809 423.435 138.95V144.472C422.9 144.359 422 144.275 421.296 144.275C416.934 144.275 415.442 147.43 415.442 151.233V161.009H409.504V139.316H409.476ZM440.209 146.951C439.843 144.528 438.295 143.204 435.819 143.204C431.991 143.204 430.753 147.064 430.753 150.247C430.753 153.431 431.963 157.093 435.706 157.093C438.464 157.093 440.069 155.318 440.434 152.698H446.176C445.416 158.446 441.448 161.601 435.734 161.601C429.205 161.601 424.786 156.981 424.786 150.473C424.786 143.965 428.811 138.725 435.847 138.725C440.969 138.725 445.641 141.401 446.035 146.951H440.209ZM454.197 151.6C454.366 155.375 456.223 157.093 459.516 157.093C461.909 157.093 463.822 155.628 464.216 154.276H469.451C467.763 159.403 464.216 161.573 459.319 161.573C452.48 161.573 448.259 156.868 448.259 150.163C448.259 143.458 452.734 138.697 459.319 138.697C466.693 138.697 470.268 144.895 469.845 151.571H454.225L454.197 151.6ZM463.879 147.824C463.344 144.81 462.049 143.204 459.15 143.204C455.379 143.204 454.281 146.134 454.197 147.824H463.879ZM473.138 131.062H479.077V161.009H473.138V131.062ZM493.853 138.725C500.692 138.725 505.082 143.26 505.082 150.163C505.082 157.065 500.692 161.573 493.853 161.573C487.013 161.573 482.651 157.037 482.651 150.163C482.651 143.289 487.042 138.725 493.853 138.725ZM493.853 157.093C497.905 157.093 499.144 153.628 499.144 150.163C499.144 146.698 497.934 143.204 493.853 143.204C489.772 143.204 488.618 146.698 488.618 150.163C488.618 153.628 489.828 157.093 493.853 157.093ZM508.6 139.316H514.257V142.331H514.37C515.89 139.908 518.479 138.725 520.984 138.725C527.316 138.725 528.892 142.303 528.892 147.655V160.981H522.954V148.726C522.954 145.148 521.913 143.401 519.154 143.401C515.918 143.401 514.539 145.204 514.539 149.599V160.953H508.6V139.26V139.316ZM532.889 145.993C533.227 140.415 538.208 138.725 543.077 138.725C547.383 138.725 552.59 139.683 552.59 144.895V156.192C552.59 158.164 552.787 160.136 553.35 161.009H547.327C547.102 160.333 546.961 159.629 546.905 158.924C545.019 160.897 542.261 161.601 539.615 161.601C535.506 161.601 532.242 159.544 532.242 155.093C532.242 150.191 535.928 149.008 539.615 148.501C543.274 147.937 546.652 148.078 546.652 145.655C546.652 143.091 544.878 142.725 542.796 142.725C540.544 142.725 539.081 143.655 538.856 145.993H532.889ZM546.623 150.388C545.61 151.262 543.528 151.318 541.67 151.656C539.812 152.05 538.152 152.67 538.152 154.839C538.152 157.009 539.869 157.6 541.783 157.6C546.426 157.6 546.595 153.91 546.595 152.614V150.388H546.623Z" fill="black"/>
</svg>
