<svg width="851" height="200" viewBox="0 0 851 200" fill="none" xmlns="http://www.w3.org/2000/svg">
<path d="M302.872 6.91621C308.322 6.91621 312.993 6.91621 316.108 8.47334L313.772 55.9657H302.872C258.492 55.9657 236.691 82.4369 236.691 135.379V195.329H187.64V9.2519H236.691V42.7301C253.82 18.5947 275.621 6.13765 302.872 6.13765V6.91621Z" fill="#008076"/>
<path d="M779.37 3.80158C798.834 3.80158 815.963 10.8087 829.978 24.8228C843.993 38.8369 851 56.7439 851 78.5437V194.55H802.727V88.665C802.727 76.208 799.613 66.8652 792.606 59.8582C785.598 52.8511 777.034 48.9583 766.912 48.9583C756.79 48.9583 742.776 53.6296 734.99 62.9724C727.204 72.3152 723.311 86.3293 723.311 105.793V194.55H674.26V88.665C674.26 76.208 671.145 66.8652 664.138 59.8582C657.131 52.8511 648.566 48.9583 638.445 48.9583C628.323 48.9583 614.308 53.6296 607.301 62.9724C599.515 72.3152 596.401 86.3293 596.401 105.793V194.55H547.349V9.25152H596.401V24.8228C610.415 10.8087 628.323 3.80158 651.681 3.80158C675.038 3.80158 698.396 13.9229 712.411 34.1656C728.761 13.9229 751.34 3.80158 780.148 3.80158H779.37Z" fill="#008076"/>
<path d="M418.103 200C359.709 200 312.215 148.615 319.222 88.6654C324.673 42.7302 361.266 6.13768 407.203 0.687736C467.155 -6.31934 518.542 41.173 518.542 99.5653V196.886H469.491V101.122C469.491 76.2084 451.583 53.6301 427.447 49.7372C395.524 44.2873 368.274 69.2013 368.274 99.5653C368.274 129.929 390.853 150.172 418.882 150.172H442.24L427.447 199.221H418.882L418.103 200Z" fill="#008076"/>
<path d="M167.397 54.4088H110.56V193.772H59.9515V54.4088H0V9.25209H168.176V55.1873L167.397 54.4088Z" fill="#008076"/>
</svg>
