<svg width="127" height="40" viewBox="0 0 127 40" fill="none" xmlns="http://www.w3.org/2000/svg">
<g clip-path="url(#clip0_81_2137)">
<path d="M116.803 0H9.535C9.168 0 8.806 0 8.44 0.002C8.134 0.004 7.83 0.01 7.521 0.015C6.855 0.031 6.182 0.072 5.517 0.191C4.848 0.309 4.226 0.509 3.616 0.818C3.018 1.125 2.471 1.523 1.998 1.997C1.519 2.471 1.123 3.02 0.819 3.618C0.508 4.227 0.311 4.852 0.194 5.521C0.074 6.184 0.032 6.854 0.015 7.523C0.006 7.83 0.005 8.138 0 8.444C0 8.807 0 9.17 0 9.536V30.465C0 30.834 0 31.195 0 31.559C0.005 31.87 0.006 32.17 0.015 32.481C0.032 33.151 0.074 33.821 0.194 34.483C0.311 35.153 0.508 35.781 0.819 36.387C1.122 36.983 1.519 37.532 1.997 38.001C2.47 38.479 3.017 38.876 3.616 39.18C4.225 39.492 4.847 39.69 5.517 39.811C6.182 39.93 6.855 39.969 7.521 39.988C7.83 39.995 8.134 39.999 8.44 39.999C8.806 40 9.168 40 9.535 40H116.803C117.162 40 117.528 40 117.887 39.998C118.192 39.998 118.504 39.994 118.809 39.987C119.479 39.968 120.151 39.929 120.809 39.81C121.479 39.689 122.102 39.492 122.717 39.179C123.315 38.875 123.862 38.478 124.334 38C124.811 37.53 125.207 36.981 125.516 36.386C125.823 35.78 126.022 35.152 126.135 34.482C126.258 33.82 126.297 33.15 126.321 32.48C126.325 32.169 126.325 31.869 126.325 31.558C126.333 31.195 126.333 30.833 126.333 30.464V9.536C126.333 9.17 126.333 8.807 126.325 8.444C126.325 8.137 126.325 7.83 126.321 7.523C126.298 6.853 126.259 6.183 126.135 5.521C126.022 4.851 125.823 4.226 125.516 3.618C125.207 3.019 124.811 2.471 124.334 1.997C123.861 1.523 123.314 1.125 122.717 0.818C122.102 0.508 121.479 0.308 120.809 0.191C120.151 0.072 119.479 0.031 118.809 0.014C118.504 0.009 118.192 0.003 117.887 0.001C117.528 0 117.162 0 116.803 0Z" fill="black"/>
<path d="M8.445 39.125C8.14 39.125 7.843 39.121 7.541 39.114C6.982 39.098 6.319 39.067 5.672 38.951C5.062 38.841 4.519 38.661 4.015 38.403C3.494 38.138 3.025 37.797 2.618 37.386C2.204 36.98 1.864 36.513 1.597 35.99C1.338 35.485 1.16 34.943 1.054 34.333C0.932 33.66 0.901 32.978 0.888 32.458C0.882 32.247 0.873 31.545 0.873 31.545V8.444C0.873 8.444 0.882 7.753 0.888 7.549C0.901 7.025 0.932 6.343 1.054 5.677C1.16 5.064 1.337 4.522 1.597 4.016C1.863 3.492 2.203 3.022 2.612 2.618C3.026 2.204 3.496 1.861 4.014 1.596C4.528 1.335 5.069 1.157 5.667 1.052C6.341 0.931 7.023 0.9 7.543 0.887L8.445 0.875H117.882L118.795 0.888C119.308 0.901 119.99 0.931 120.653 1.051C121.256 1.156 121.8 1.336 122.324 1.599C122.837 1.862 123.306 2.204 123.716 2.615C124.125 3.021 124.468 3.493 124.739 4.019C124.997 4.53 125.173 5.072 125.274 5.668C125.39 6.299 125.426 6.947 125.448 7.555C125.451 7.838 125.451 8.142 125.451 8.445C125.459 8.82 125.459 9.177 125.459 9.537V30.466C125.459 30.829 125.459 31.184 125.451 31.541C125.451 31.866 125.451 32.164 125.447 32.471C125.426 33.06 125.39 33.707 125.276 34.325C125.172 34.938 124.997 35.48 124.736 35.995C124.466 36.515 124.124 36.984 123.72 37.381C123.307 37.799 122.838 38.14 122.321 38.404C121.802 38.668 121.273 38.842 120.653 38.954C120.012 39.07 119.349 39.101 118.784 39.117C118.491 39.124 118.184 39.128 117.887 39.128L116.803 39.13L8.445 39.125Z" fill="black"/>
<path d="M24.769 20.301C24.744 17.55 27.021 16.212 27.126 16.149C25.836 14.268 23.837 14.011 23.135 13.991C21.456 13.815 19.828 14.996 18.972 14.996C18.1 14.996 16.782 14.009 15.363 14.038C13.537 14.066 11.827 15.124 10.89 16.766C8.95599 20.114 10.399 25.035 12.251 27.742C13.178 29.067 14.261 30.548 15.679 30.495C17.066 30.437 17.584 29.611 19.258 29.611C20.917 29.611 21.403 30.495 22.849 30.462C24.337 30.438 25.275 29.131 26.17 27.793C27.241 26.273 27.671 24.777 27.688 24.7C27.653 24.688 24.797 23.599 24.769 20.301Z" fill="white"/>
<path d="M22.037 12.211C22.783 11.278 23.293 10.009 23.152 8.72C22.072 8.768 20.722 9.466 19.944 10.38C19.256 11.184 18.642 12.502 18.8 13.741C20.013 13.831 21.259 13.129 22.037 12.211Z" fill="white"/>
<path d="M35.6689 18.078H37.5279V30.496H35.6689V18.078Z" fill="white"/>
<path d="M39.9189 18.078H41.7779L40.5219 22.484H39.2139L39.9189 18.078Z" fill="white"/>
<path d="M45.6149 18.078H47.6979L52.2069 30.496H50.1849L49.0489 27.14H44.2639L43.1189 30.496H41.0969L45.6149 18.078ZM44.7809 25.591H48.5249L46.6739 20.135H46.6399L44.7809 25.591Z" fill="white"/>
<path d="M53.3489 21.443H55.2079V23H55.2509C55.7929 21.925 56.7919 21.271 58.0829 21.271C60.3889 21.271 61.8699 23.079 61.8699 25.97V25.978C61.8699 28.862 60.3809 30.677 58.1089 30.677C56.8269 30.677 55.7859 30.023 55.2519 28.973H55.2089V33.508H53.3499L53.3489 21.443ZM59.9759 25.978V25.97C59.9759 24.042 59.0549 22.863 57.6009 22.863C56.1889 22.863 55.1999 24.086 55.1999 25.97V25.978C55.1999 27.855 56.1989 29.077 57.6009 29.077C59.0629 29.076 59.9759 27.889 59.9759 25.978Z" fill="white"/>
<path d="M63.3029 21.443H65.1619V23H65.2049C65.7469 21.925 66.7459 21.271 68.0369 21.271C70.3429 21.271 71.8239 23.079 71.8239 25.97V25.978C71.8239 28.862 70.335 30.677 68.063 30.677C66.781 30.677 65.7399 30.023 65.2059 28.973H65.1629V33.508H63.3039L63.3029 21.443ZM69.9299 25.978V25.97C69.9299 24.042 69.0089 22.863 67.5549 22.863C66.1429 22.863 65.1539 24.086 65.1539 25.97V25.978C65.1539 27.855 66.1529 29.077 67.5549 29.077C69.0179 29.076 69.9299 27.889 69.9299 25.978Z" fill="white"/>
<path d="M76.5189 27.192L76.5109 27.063H78.3869L78.4039 27.174C78.5759 28.319 79.721 29.033 81.382 29.033C83.043 29.033 84.0929 28.284 84.0929 27.123V27.114C84.0929 26.115 83.4129 25.573 81.7689 25.212L80.4179 24.928C77.9819 24.412 76.8039 23.293 76.8039 21.451V21.442C76.8119 19.325 78.6799 17.871 81.3049 17.871C83.8949 17.871 85.6679 19.282 85.7969 21.365L85.8049 21.511H83.9289L83.9209 21.39C83.7489 20.238 82.7509 19.54 81.2789 19.54C79.7379 19.548 78.7579 20.28 78.7579 21.364V21.373C78.7579 22.302 79.4639 22.87 81.0119 23.206L82.3719 23.49C84.9359 24.032 86.0379 25.073 86.0379 26.992V27.001C86.0379 29.265 84.2479 30.702 81.3049 30.702C78.5149 30.703 76.6729 29.377 76.5189 27.192Z" fill="white"/>
<path d="M88.1349 28.112V22.923H86.8359V21.443H88.1349V19.086H90.0369V21.443H91.7319V22.923H90.0369V28C90.0369 28.921 90.4499 29.196 91.2329 29.196C91.4309 29.196 91.5939 29.179 91.7319 29.162V30.6C91.5169 30.634 91.164 30.677 90.785 30.677C88.996 30.677 88.1349 29.92 88.1349 28.112Z" fill="white"/>
<path d="M92.7519 25.97V25.952C92.7519 23.06 94.4649 21.27 97.0379 21.27C99.6199 21.27 101.341 23.051 101.341 25.952V25.97C101.341 28.887 99.6369 30.677 97.0469 30.677C94.4479 30.677 92.7519 28.878 92.7519 25.97ZM99.4389 25.97V25.952C99.4389 23.973 98.4919 22.828 97.0379 22.828C95.6089 22.828 94.6539 23.973 94.6539 25.952V25.97C94.6539 27.975 95.5999 29.119 97.0549 29.119C98.5099 29.119 99.4389 27.966 99.4389 25.97Z" fill="white"/>
<path d="M102.864 21.443H104.723V22.993H104.766C105.058 21.934 105.816 21.271 106.849 21.271C107.116 21.271 107.348 21.314 107.495 21.34V23.069C107.349 23.008 107.022 22.965 106.66 22.965C105.464 22.965 104.724 23.748 104.724 25.1V30.496H102.865L102.864 21.443Z" fill="white"/>
<path d="M107.888 26.004V25.995C107.888 23.164 109.523 21.27 112.062 21.27C114.601 21.27 116.158 23.094 116.158 25.814V26.442H109.747C109.781 28.155 110.719 29.153 112.2 29.153C113.302 29.153 114.033 28.586 114.265 27.905L114.291 27.837H116.055L116.037 27.932C115.745 29.37 114.35 30.677 112.156 30.677C109.498 30.677 107.888 28.862 107.888 26.004ZM109.773 25.126H114.317C114.162 23.56 113.284 22.794 112.071 22.794C110.866 22.794 109.937 23.612 109.773 25.126Z" fill="white"/>
<path d="M35.667 8.70898H37.83C39.606 8.70898 40.648 9.80499 40.648 11.685V11.693C40.648 13.594 39.615 14.698 37.83 14.698H35.667V8.70898ZM37.726 13.897C38.98 13.897 39.702 13.096 39.702 11.706V11.697C39.702 10.319 38.968 9.50998 37.726 9.50998H36.597V13.897H37.726Z" fill="white"/>
<path d="M41.688 12.457V12.453C41.688 11.046 42.501 10.103 43.759 10.103C45.017 10.103 45.789 11.012 45.789 12.365V12.68H42.593C42.61 13.543 43.083 14.046 43.825 14.046C44.402 14.046 44.747 13.759 44.854 13.527L44.871 13.494L45.739 13.49L45.731 13.528C45.582 14.121 44.959 14.785 43.805 14.785C42.485 14.785 41.688 13.884 41.688 12.457ZM42.606 12.038H44.897C44.826 11.232 44.374 10.843 43.764 10.843C43.149 10.842 42.685 11.261 42.606 12.038Z" fill="white"/>
<path d="M46.746 13.519V13.515H47.647L47.651 13.519C47.763 13.859 48.091 14.087 48.627 14.087C49.183 14.087 49.569 13.834 49.569 13.465V13.456C49.569 13.174 49.358 12.983 48.834 12.863L48.116 12.697C47.265 12.502 46.871 12.116 46.871 11.456V11.452C46.871 10.667 47.601 10.103 48.622 10.103C49.651 10.103 50.311 10.618 50.39 11.353V11.357H49.531V11.348C49.444 11.033 49.125 10.796 48.618 10.796C48.124 10.796 47.767 11.041 47.767 11.402V11.41C47.767 11.692 47.975 11.867 48.481 11.987L49.195 12.149C50.062 12.353 50.477 12.722 50.477 13.373V13.382C50.477 14.216 49.68 14.784 48.61 14.784C47.522 14.785 46.833 14.275 46.746 13.519Z" fill="white"/>
<path d="M51.438 12.432V12.424C51.438 10.996 52.239 10.104 53.555 10.104C54.688 10.104 55.365 10.744 55.489 11.619V11.64L54.626 11.644L54.622 11.631C54.522 11.187 54.157 10.855 53.56 10.855C52.809 10.855 52.357 11.453 52.357 12.424V12.432C52.357 13.428 52.817 14.034 53.56 14.034C54.124 14.034 54.473 13.777 54.619 13.291L54.627 13.27H55.49L55.482 13.307C55.32 14.183 54.677 14.785 53.56 14.785C52.244 14.785 51.438 13.888 51.438 12.432Z" fill="white"/>
<path d="M56.359 13.432V13.423C56.359 12.618 56.965 12.149 58.04 12.083L59.26 12.012V11.614C59.26 11.12 58.949 10.846 58.339 10.846C57.841 10.846 57.513 11.029 57.405 11.348L57.401 11.365H56.534L56.538 11.336C56.646 10.597 57.356 10.103 58.381 10.103C59.514 10.103 60.153 10.667 60.153 11.614V14.698H59.26V14.059H59.19C58.924 14.516 58.451 14.773 57.854 14.773C56.995 14.773 56.359 14.25 56.359 13.432ZM58.094 14.054C58.766 14.054 59.26 13.615 59.26 13.033V12.647L58.16 12.718C57.537 12.755 57.255 12.979 57.255 13.386V13.394C57.256 13.81 57.609 14.054 58.094 14.054Z" fill="white"/>
<path d="M61.534 10.191H62.434V10.872H62.5C62.662 10.395 63.081 10.113 63.683 10.113C63.828 10.113 63.986 10.134 64.077 10.154V10.984C63.915 10.951 63.762 10.93 63.592 10.93C62.903 10.93 62.434 11.353 62.434 12.005V14.698H61.534V10.191Z" fill="white"/>
<path d="M65.114 10.191H66.014V10.872H66.08C66.242 10.395 66.661 10.113 67.263 10.113C67.408 10.113 67.566 10.134 67.657 10.154V10.984C67.495 10.951 67.342 10.93 67.172 10.93C66.483 10.93 66.014 11.353 66.014 12.005V14.698H65.114V10.191Z" fill="white"/>
<path d="M68.287 12.457V12.453C68.287 11.046 69.1 10.103 70.358 10.103C71.616 10.103 72.388 11.012 72.388 12.365V12.68H69.192C69.209 13.543 69.682 14.046 70.424 14.046C71.001 14.046 71.346 13.759 71.453 13.527L71.47 13.494L72.338 13.49L72.33 13.528C72.181 14.121 71.558 14.785 70.404 14.785C69.084 14.785 68.287 13.884 68.287 12.457ZM69.205 12.038H71.496C71.425 11.232 70.973 10.843 70.363 10.843C69.748 10.842 69.283 11.261 69.205 12.038Z" fill="white"/>
<path d="M73.515 15.034L73.523 15.026H74.432L74.436 15.034C74.511 15.346 74.876 15.565 75.486 15.565C76.229 15.565 76.669 15.216 76.669 14.602V13.714H76.603C76.329 14.203 75.831 14.478 75.212 14.478C74.054 14.478 73.34 13.585 73.34 12.315V12.307C73.34 11.02 74.058 10.112 75.229 10.112C75.86 10.112 76.35 10.423 76.611 10.929H76.665V10.19H77.561V14.606C77.561 15.631 76.752 16.287 75.474 16.287C74.329 16.288 73.623 15.785 73.515 15.034ZM76.686 12.311V12.303C76.686 11.464 76.221 10.875 75.461 10.875C74.693 10.875 74.262 11.464 74.262 12.303V12.311C74.262 13.15 74.694 13.735 75.461 13.735C76.225 13.735 76.686 13.154 76.686 12.311Z" fill="white"/>
<path d="M78.71 13.432V13.423C78.71 12.618 79.316 12.149 80.391 12.083L81.611 12.012V11.614C81.611 11.12 81.3 10.846 80.69 10.846C80.192 10.846 79.864 11.029 79.756 11.348L79.752 11.365H78.885L78.889 11.336C78.997 10.597 79.707 10.103 80.732 10.103C81.865 10.103 82.504 10.667 82.504 11.614V14.698H81.611V14.059H81.541C81.275 14.516 80.802 14.773 80.205 14.773C79.345 14.773 78.71 14.25 78.71 13.432ZM80.445 14.054C81.117 14.054 81.611 13.615 81.611 13.033V12.647L80.511 12.718C79.888 12.755 79.606 12.979 79.606 13.386V13.394C79.606 13.81 79.959 14.054 80.445 14.054Z" fill="white"/>
<path d="M83.884 10.191H84.784V10.872H84.85C85.012 10.395 85.431 10.113 86.033 10.113C86.179 10.113 86.337 10.134 86.428 10.154V10.984C86.266 10.951 86.113 10.93 85.943 10.93C85.255 10.93 84.785 11.353 84.785 12.005V14.698H83.885L83.884 10.191Z" fill="white"/>
<path d="M89.571 13.432V13.423C89.571 12.618 90.177 12.149 91.253 12.083L92.473 12.012V11.614C92.473 11.12 92.161 10.846 91.552 10.846C91.054 10.846 90.726 11.029 90.618 11.348L90.613 11.365H89.746L89.75 11.336C89.858 10.597 90.567 10.103 91.593 10.103C92.726 10.103 93.365 10.667 93.365 11.614V14.698H92.472V14.059H92.402C92.136 14.516 91.663 14.773 91.065 14.773C90.207 14.773 89.571 14.25 89.571 13.432ZM91.306 14.054C91.979 14.054 92.472 13.615 92.472 13.033V12.647L91.372 12.718C90.75 12.755 90.467 12.979 90.467 13.386V13.394C90.467 13.81 90.821 14.054 91.306 14.054Z" fill="white"/>
</g>
<defs>
<clipPath id="clip0_81_2137">
<rect width="126.332" height="40" fill="white"/>
</clipPath>
</defs>
</svg>
