<svg width="640" height="200" viewBox="0 0 640 200" fill="none" xmlns="http://www.w3.org/2000/svg">
<path d="M0 0H199.677V200H0V0Z" fill="#DADADA"/>
<path d="M0.227734 0H199.905V71.4498H0.227734V0Z" fill="#00928B"/>
<path fill-rule="evenodd" clip-rule="evenodd" d="M59.7345 71.6551H68.73L71.8955 62.0737H86.9943L90.0459 71.6551H99.2691L84.2615 28.6301H75.1521L59.7345 71.6551ZM79.4791 39.2381H79.7068L84.7852 55.0245H74.2184L79.4791 39.2381Z" fill="white"/>
<path d="M107.513 71.6551H116.395V36.5918H128.487V28.6301H95.4204V36.5918H107.513V71.6551Z" fill="white"/>
<path d="M133.133 71.6551H141.445V41.4509H141.559L151.443 71.6551H158.298L168.181 41.1543H168.295V71.6551H176.607V28.6301H164.105L155.178 58.2183H155.064L145.613 28.6301H133.133V71.6551Z" fill="white"/>
<path fill-rule="evenodd" clip-rule="evenodd" d="M232.288 25.5047H235.613L231.059 16.9043H225.456L232.288 25.5047ZM215.345 71.5866H220.401L224.545 58.629H240.145L244.199 71.5866H249.619L235.181 28.5845H229.761L215.345 71.5866ZM232.288 33.763L238.437 53.8154H226.094L232.288 33.763Z" fill="#1D1D1B"/>
<path d="M252.352 71.5866H256.747V57.7393C256.747 49.846 259.343 45.1466 266.426 45.1466V39.7171C261.666 39.5346 258.728 41.9984 256.61 47.0172H256.496V40.4471H252.352V71.5866Z" fill="#1D1D1B"/>
<path fill-rule="evenodd" clip-rule="evenodd" d="M287.24 61.7087C287.09 63.4046 286.3 64.9792 285.03 66.1112C283.76 67.2431 282.107 67.847 280.408 67.7997C274.578 67.7997 271.937 62.9634 272.096 57.5567H292.091C292.364 50.0285 289.472 39.7171 279.999 39.7171C272.711 39.7171 267.428 46.561 267.428 55.937C267.428 65.3131 271.732 72.3166 280.249 72.3166C286.261 72.3166 290.497 68.5753 291.636 61.7087H287.24ZM272.005 53.0398C272.301 48.2719 275.057 44.2341 279.657 44.2341C284.257 44.2341 287.149 48.1579 287.354 53.0398H272.005Z" fill="#1D1D1B"/>
<path fill-rule="evenodd" clip-rule="evenodd" d="M313.088 60.7505C313.031 61.7554 312.773 62.7386 312.329 63.6415C311.885 64.5444 311.264 65.3486 310.503 66.0063C309.743 66.6639 308.858 67.1616 307.901 67.4697C306.945 67.7778 305.936 67.89 304.935 67.7997C302.248 67.7997 299.766 66.5906 299.766 63.2371C299.766 59.4502 302.248 58.2411 305.14 57.648C308.033 57.0549 311.38 56.9636 313.088 55.5264V60.7734V60.7505ZM320.239 67.5944C319.815 67.7811 319.359 67.8819 318.895 67.891C317.484 67.891 317.484 66.7959 317.484 64.4006V48.4316C317.484 41.1543 312.268 39.8768 307.463 39.8768C301.519 39.8768 296.395 42.5915 296.077 50.3023H300.608C300.813 45.7397 303.546 44.3937 307.281 44.3937C310.059 44.3937 313.225 45.1238 313.225 49.5723C313.225 53.4276 309.08 53.0854 304.229 54.1348C299.379 55.1842 295.12 56.6671 295.12 63.7162C295.12 69.9213 299.105 72.4535 303.956 72.4535C305.802 72.4894 307.627 72.0689 309.272 71.2293C310.916 70.3897 312.329 69.1569 313.384 67.64C313.384 70.9935 314.819 72.4535 317.096 72.4535C318.215 72.5184 319.324 72.2226 320.262 71.6094V67.5031L320.239 67.5944Z" fill="#1D1D1B"/>
<path fill-rule="evenodd" clip-rule="evenodd" d="M362.575 28.5845H358.18V44.5534H358.066C357.192 43.0425 355.932 41.793 354.414 40.9346C352.896 40.0762 351.177 39.6401 349.435 39.6715C341.259 39.6715 337.228 47.0857 337.228 55.8914C337.228 64.6972 341.304 72.271 349.526 72.271C351.283 72.4125 353.041 72.0145 354.567 71.1302C356.092 70.2459 357.313 68.917 358.066 67.3206H358.18V71.541H362.575V28.5845ZM341.874 56.2792C341.874 50.211 343.901 44.2341 349.89 44.2341C355.879 44.2341 358.316 49.9145 358.316 56.0511C358.316 62.1878 356.039 67.7997 350.163 67.7997C344.288 67.7997 341.874 62.1421 341.874 56.3933V56.2792Z" fill="#1D1D1B"/>
<path fill-rule="evenodd" clip-rule="evenodd" d="M387.785 61.7087C387.635 63.4046 386.844 64.9792 385.575 66.1112C384.305 67.2431 382.652 67.847 380.953 67.7997C375.1 67.7997 372.481 62.9634 372.641 57.5567H392.636C392.909 50.0285 389.994 39.7171 380.543 39.7171C373.256 39.7171 367.972 46.561 367.972 55.937C367.972 65.3131 372.276 72.3166 380.794 72.3166C386.806 72.3166 391.042 68.5753 392.18 61.7087H387.785ZM372.55 53.0398C372.846 48.2719 375.578 44.2341 380.201 44.2341C384.824 44.2341 387.694 48.1579 387.899 53.0398H372.55Z" fill="#1D1D1B"/>
<path fill-rule="evenodd" clip-rule="evenodd" d="M417.094 51.8992H428.322C432.443 51.8992 436.338 53.4504 436.338 59.0624C436.338 63.7618 433.65 66.7731 429.506 66.7731H417.208V51.8992H417.094ZM412.198 71.5866H430.052C437.385 71.5866 441.257 65.564 441.257 59.2449C441.257 53.9295 438.774 49.9601 434.243 48.8879V48.751C435.998 47.8627 437.453 46.4755 438.425 44.7632C439.397 43.0508 439.843 41.0893 439.708 39.124C439.774 37.389 439.415 35.6642 438.66 34.101C437.906 32.5379 436.78 31.1841 435.381 30.1586C433.104 28.5845 428.845 28.5845 425.589 28.5845H412.198V71.5866ZM417.117 33.398H426.955C431.191 33.398 434.812 34.242 434.812 40.2418C434.812 44.8044 432.535 47.0857 426.955 47.0857H417.117V33.398Z" fill="#1D1D1B"/>
<path fill-rule="evenodd" clip-rule="evenodd" d="M463.415 60.7505C463.355 61.7565 463.094 62.7401 462.648 63.6431C462.201 64.5461 461.578 65.3502 460.816 66.0075C460.054 66.6649 459.167 67.1623 458.209 67.4701C457.251 67.778 456.242 67.8901 455.24 67.7997C452.552 67.7997 450.07 66.5906 450.07 63.2371C450.07 59.4502 452.552 58.2411 455.445 57.648C458.337 57.0549 461.707 56.9636 463.415 55.5264V60.7734V60.7505ZM470.543 67.5944C470.119 67.7811 469.663 67.8819 469.2 67.891C467.811 67.891 467.811 66.7959 467.811 64.4006V48.4316C467.811 41.1543 462.595 39.8768 457.79 39.8768C451.846 39.8768 446.722 42.5915 446.404 50.3023H450.913C451.118 45.7397 453.873 44.3937 457.585 44.3937C460.386 44.3937 463.529 45.1238 463.529 49.5723C463.529 53.4276 459.407 53.0854 454.534 54.1348C449.66 55.1842 445.424 56.6671 445.424 63.7162C445.424 69.9213 449.41 72.4535 454.26 72.4535C456.103 72.4916 457.926 72.072 459.568 71.232C461.209 70.3921 462.617 69.158 463.666 67.64C463.666 70.9935 465.123 72.4535 467.401 72.4535C468.511 72.5151 469.612 72.2193 470.543 71.6094V67.5031V67.5944Z" fill="#1D1D1B"/>
<path d="M474.483 71.5866H478.878V57.7393C478.878 49.846 481.452 45.1466 488.534 45.1466V39.7171C483.775 39.5346 480.837 41.9984 478.719 47.0172H478.605V40.4471H474.483V71.5866Z" fill="#1D1D1B"/>
<path d="M513.608 50.4392C513.605 48.9613 513.299 47.4997 512.709 46.1454C512.118 44.7912 511.255 43.5732 510.174 42.5674C509.093 41.5616 507.817 40.7895 506.425 40.2992C505.034 39.8088 503.556 39.6107 502.084 39.7171C493.59 39.7171 489.468 47.0629 489.468 56.4161C489.468 65.7694 493.795 72.3851 501.971 72.3851C508.803 72.3851 512.788 67.8225 513.767 60.2715H509.213C508.643 64.9709 506.115 67.8681 501.88 67.8681C496.3 67.8681 494.068 62.2106 494.068 56.4617C494.068 50.1426 496.027 44.2797 502.381 44.2797C504.072 44.2538 505.708 44.8859 506.944 46.0431C508.18 47.2003 508.919 48.7924 509.008 50.4848L513.608 50.4392Z" fill="#1D1D1B"/>
<path fill-rule="evenodd" clip-rule="evenodd" d="M537.133 61.7087C536.976 63.4229 536.168 65.0112 534.875 66.145C533.582 67.2788 531.904 67.8712 530.187 67.7997C524.357 67.7997 521.715 62.9634 521.875 57.5567H542.006C542.257 50.0285 539.364 39.7171 529.891 39.7171C522.603 39.7171 517.32 46.561 517.32 55.937C517.32 65.3131 521.624 72.3166 530.164 72.3166C536.153 72.3166 540.389 68.5753 541.551 61.7087H537.133ZM521.875 53.0398C522.171 48.2719 524.926 44.2341 529.526 44.2341C534.127 44.2341 537.019 48.1579 537.224 53.0398H521.875Z" fill="#1D1D1B"/>
<path d="M546.675 71.5866H551.07V28.5845H546.675V71.5866Z" fill="#1D1D1B"/>
<path fill-rule="evenodd" clip-rule="evenodd" d="M556.444 56.0511C556.444 65.1762 560.999 72.3166 569.425 72.3166C577.851 72.3166 582.406 65.1534 582.406 56.0511C582.406 46.9488 577.851 39.7171 569.425 39.7171C560.999 39.7171 556.444 46.9032 556.444 56.0511ZM560.999 56.0511C560.999 48.4544 564.711 44.2341 569.311 44.2341C573.912 44.2341 577.646 48.4544 577.646 56.0511C577.646 63.6478 573.912 67.7997 569.311 67.7997C564.711 67.7997 560.999 63.5793 560.999 56.0511Z" fill="#1D1D1B"/>
<path d="M587.553 71.5866H591.948V53.9979C591.948 48.4088 594.544 44.2341 599.851 44.2341C603.221 44.2341 605.293 46.7207 605.293 50.5076V71.5866H609.689V51.0551C609.689 44.3709 607.411 39.6487 600.579 39.6487C598.724 39.5951 596.897 40.1104 595.342 41.1255C593.788 42.1407 592.58 43.6073 591.88 45.3291V40.4471H587.553V71.5866Z" fill="#1D1D1B"/>
<path fill-rule="evenodd" clip-rule="evenodd" d="M632.872 60.7505C632.812 61.7565 632.551 62.7401 632.104 63.6431C631.658 64.5461 631.035 65.3502 630.273 66.0075C629.51 66.6649 628.624 67.1623 627.666 67.4701C626.708 67.778 625.698 67.8901 624.696 67.7997C622.009 67.7997 619.527 66.5906 619.527 63.2371C619.527 59.4502 622.009 58.2411 624.901 57.648C627.793 57.0549 631.164 56.9636 632.872 55.5264V60.7734V60.7505ZM640 67.5944C639.576 67.7811 639.119 67.8819 638.656 67.891C637.267 67.891 637.267 66.7959 637.267 64.4006V48.4316C637.267 41.1543 632.029 39.8768 627.224 39.8768C621.28 39.8768 616.156 42.5915 615.837 50.3023H620.233C620.438 45.7397 623.17 44.3937 626.905 44.3937C629.706 44.3937 632.849 45.1238 632.849 49.5723C632.849 53.4276 628.704 53.0854 623.854 54.1348C619.003 55.1842 614.744 56.6671 614.744 63.7162C614.744 69.9213 618.707 72.4535 623.58 72.4535C625.454 72.4915 627.307 72.0583 628.97 71.1935C630.633 70.3286 632.053 69.0598 633.1 67.5031C633.1 70.8566 634.557 72.3166 636.835 72.3166C637.945 72.3782 639.046 72.0825 639.977 71.4726V67.5031L640 67.5944Z" fill="#1D1D1B"/>
<path d="M216.916 149.675H221.699V130.717H221.767L227.438 149.675H231.377L237.071 130.535H237.116V149.675H241.899V122.665H234.725L229.578 141.234H229.533L224.09 122.665H216.916V149.675Z" fill="#1D1D1B"/>
<path fill-rule="evenodd" clip-rule="evenodd" d="M261.894 141.189C262.213 135.189 259.457 129.577 253.718 129.577C248.64 129.577 245.155 134.139 245.155 139.911C245.155 145.683 248.435 150.2 253.718 150.2C257.521 150.2 260.3 148.238 261.598 143.607H257.521C257.263 144.36 256.773 145.012 256.123 145.471C255.473 145.93 254.695 146.171 253.9 146.162C251.327 146.162 249.892 144.588 249.756 141.189H261.894ZM249.756 137.789C249.731 137.262 249.812 136.736 249.993 136.241C250.174 135.745 250.452 135.291 250.81 134.904C251.168 134.518 251.6 134.207 252.08 133.989C252.56 133.772 253.078 133.652 253.604 133.638C255.882 133.638 256.838 135.075 257.271 137.789H249.756Z" fill="#1D1D1B"/>
<path d="M265.834 124.239V130.033H263.055V133.638H265.834V145.181C265.834 149.082 268.316 149.743 271.14 149.743C272.04 149.76 272.94 149.691 273.827 149.538V145.5C273.364 145.61 272.89 145.663 272.415 145.66C270.844 145.66 270.457 145.204 270.457 143.379V133.706H273.827V130.033H270.457V124.239H265.834Z" fill="#1D1D1B"/>
<path d="M275.968 149.675H280.522V140.846C280.522 137.402 281.684 134.573 285.077 134.573C285.636 134.57 286.194 134.631 286.739 134.755V129.759C286.418 129.642 286.079 129.58 285.737 129.577C284.529 129.649 283.371 130.084 282.412 130.824C281.454 131.565 280.74 132.577 280.363 133.729V130.033H275.968V149.675Z" fill="#1D1D1B"/>
<path fill-rule="evenodd" clip-rule="evenodd" d="M287.491 139.911C287.491 146.116 290.907 150.2 296.168 150.2C301.428 150.2 304.867 146.116 304.867 139.911C304.867 133.706 301.474 129.577 296.168 129.577C290.861 129.577 287.491 133.66 287.491 139.911ZM292.046 139.911C292.046 136.763 292.979 133.638 296.099 133.638C299.219 133.638 300.199 136.763 300.199 139.911C300.199 143.059 299.242 146.162 296.099 146.162C292.957 146.162 292.046 143.014 292.046 139.911Z" fill="#1D1D1B"/>
<path fill-rule="evenodd" clip-rule="evenodd" d="M307.873 156.564H312.428V147.257C312.93 148.151 313.661 148.895 314.546 149.413C315.43 149.93 316.436 150.202 317.461 150.2C322.357 150.2 324.839 145.318 324.839 140.094C324.839 134.869 322.562 129.577 317.21 129.577C316.172 129.543 315.146 129.812 314.257 130.351C313.367 130.889 312.653 131.674 312.2 132.611V130.033H307.828V156.496L307.873 156.564ZM316.345 146.162C313.362 146.162 312.314 143.128 312.314 139.934C312.314 136.74 313.293 133.638 316.299 133.638C319.305 133.638 320.33 136.831 320.33 139.934C320.33 143.036 319.351 146.162 316.345 146.162Z" fill="#1D1D1B"/>
<path fill-rule="evenodd" clip-rule="evenodd" d="M327.185 139.911C327.185 146.116 330.601 150.2 335.862 150.2C341.122 150.2 344.561 146.116 344.561 139.911C344.561 133.706 341.145 129.577 335.862 129.577C330.578 129.577 327.185 133.66 327.185 139.911ZM331.74 139.911C331.74 136.763 332.673 133.638 335.793 133.638C338.913 133.638 339.893 136.763 339.893 139.911C339.893 143.059 338.936 146.162 335.793 146.162C332.651 146.162 331.74 143.014 331.74 139.911Z" fill="#1D1D1B"/>
<path d="M347.681 149.675H352.304V122.665H347.681V149.675Z" fill="#1D1D1B"/>
<path fill-rule="evenodd" clip-rule="evenodd" d="M356.062 149.675H360.616V130.033H356.062V149.675ZM360.616 122.642H356.062V127.204H360.616V122.642Z" fill="#1D1D1B"/>
<path d="M370.158 124.239H365.604V130.033H362.803V133.638H365.604V145.181C365.604 149.082 368.086 149.743 370.91 149.743C371.81 149.76 372.71 149.691 373.597 149.538V145.5C373.127 145.611 372.645 145.664 372.162 145.66C370.614 145.66 370.227 145.204 370.227 143.379V133.706H373.483V130.033H370.113V124.239H370.158Z" fill="#1D1D1B"/>
<path fill-rule="evenodd" clip-rule="evenodd" d="M382.593 127.752H385.804L382.593 122.322H377.491L382.593 127.752ZM386.236 142.17C386.236 143.333 386.1 146.732 382.502 146.732C380.998 146.732 379.678 146.253 379.678 144.245C379.678 142.238 380.976 141.713 382.41 141.371C383.845 141.029 385.462 141.029 386.236 140.23V142.238V142.17ZM380.201 136.193C380.172 135.789 380.232 135.383 380.377 135.005C380.521 134.627 380.747 134.286 381.039 134.005C381.33 133.724 381.679 133.511 382.062 133.38C382.445 133.25 382.851 133.205 383.253 133.25C384.87 133.25 386.236 133.592 386.236 135.896C386.236 138.2 383.595 137.972 380.771 138.451C377.947 138.93 375.055 139.979 375.055 144.405C374.98 145.182 375.075 145.966 375.334 146.702C375.592 147.438 376.008 148.109 376.553 148.667C377.097 149.225 377.757 149.658 378.485 149.934C379.214 150.211 379.994 150.325 380.771 150.268C381.836 150.314 382.898 150.121 383.879 149.702C384.861 149.284 385.736 148.651 386.441 147.85C386.479 148.491 386.586 149.126 386.76 149.743H391.429C390.97 148.339 390.777 146.861 390.859 145.386V135.143C390.859 130.444 386.828 129.577 383.481 129.577C379.7 129.577 375.852 131.082 375.578 136.124L380.201 136.193Z" fill="#1D1D1B"/>
<path fill-rule="evenodd" clip-rule="evenodd" d="M214.457 111.783H219.626L221.425 105.76H230.011L231.765 111.783H237.071L228.394 84.7724H223.179L214.457 111.783ZM225.843 91.4338L228.781 101.335H222.769L225.798 91.4338H225.843Z" fill="#1D1D1B"/>
<path d="M254.424 92.2779H249.869V102.521C249.869 106.49 248.799 108.133 246.294 108.133C244.153 108.133 243.333 106.536 243.333 103.319V92.2779H238.779V104.3C238.779 109.137 240.009 112.353 244.905 112.353C245.977 112.337 247.023 112.026 247.931 111.455C248.839 110.884 249.572 110.074 250.052 109.114V111.783H254.424V92.2779Z" fill="#1D1D1B"/>
<path d="M259.229 86.415V92.2779H256.451V95.8139H259.229V107.357C259.229 111.258 261.712 111.92 264.535 111.92C265.435 111.932 266.333 111.871 267.223 111.737V107.677C266.759 107.778 266.285 107.824 265.811 107.813C264.239 107.813 263.852 107.357 263.852 105.532V95.8139H267.223V92.2779H263.852V86.415H259.229Z" fill="#1D1D1B"/>
<path fill-rule="evenodd" clip-rule="evenodd" d="M268.84 102.065C268.84 108.27 272.256 112.353 277.516 112.353C282.777 112.353 286.216 108.27 286.216 102.065C286.216 95.8595 282.822 91.7304 277.516 91.7304C272.21 91.7304 268.84 95.8367 268.84 102.065ZM273.394 102.065C273.394 98.9392 274.328 95.791 277.448 95.791C280.568 95.791 281.547 98.9392 281.547 102.065C281.547 105.19 280.591 108.315 277.448 108.315C274.305 108.315 273.394 105.167 273.394 102.065Z" fill="#1D1D1B"/>
<path d="M289.222 111.783H293.776V103.023C293.776 99.578 294.938 96.7264 298.331 96.7264C298.884 96.7298 299.434 96.7988 299.971 96.9317V91.9357C299.652 91.8062 299.313 91.7366 298.969 91.7304C297.8 91.8294 296.686 92.2688 295.763 92.9944C294.841 93.72 294.15 94.7 293.776 95.8139V92.2779H289.222V111.783Z" fill="#1D1D1B"/>
<path fill-rule="evenodd" clip-rule="evenodd" d="M301.975 111.783H306.53V92.2779H301.975V111.783ZM306.53 84.7724H301.975V89.1981H306.53V84.7724Z" fill="#1D1D1B"/>
<path d="M311.517 86.415V92.2779H308.716V95.8139H311.517V107.357C311.517 111.258 313.999 111.92 316.823 111.92C317.722 111.932 318.621 111.871 319.51 111.737V107.677C319.039 107.78 318.558 107.826 318.076 107.813C316.527 107.813 316.14 107.357 316.14 105.532V95.8139H319.51V92.2779H316.14V86.415H311.517Z" fill="#1D1D1B"/>
<path fill-rule="evenodd" clip-rule="evenodd" d="M332.104 104.255C332.104 105.441 331.967 108.817 328.369 108.817C326.866 108.817 325.545 108.315 325.545 106.308C325.545 104.3 326.843 103.776 328.278 103.433C329.713 103.091 331.33 103.091 332.104 102.293V104.3V104.255ZM326.069 98.2776C326.04 97.8738 326.1 97.4684 326.244 97.0903C326.389 96.7122 326.615 96.3706 326.906 96.0898C327.198 95.8089 327.547 95.5957 327.93 95.4652C328.312 95.3348 328.719 95.2902 329.121 95.3348C330.738 95.3348 332.104 95.677 332.104 97.9811C332.104 100.285 329.462 100.057 326.638 100.559C323.815 101.061 320.922 102.065 320.922 106.49C320.847 107.267 320.943 108.051 321.201 108.787C321.46 109.523 321.876 110.194 322.421 110.752C322.965 111.31 323.624 111.743 324.353 112.02C325.081 112.296 325.861 112.41 326.638 112.353C327.704 112.399 328.766 112.206 329.747 111.787C330.728 111.369 331.604 110.736 332.309 109.935C332.345 110.576 332.452 111.211 332.628 111.828H337.296C336.837 110.424 336.644 108.946 336.727 107.471V97.2967C336.727 92.7341 332.696 91.7304 329.348 91.7304C325.568 91.7304 321.719 93.2588 321.446 98.2776H326.069Z" fill="#1D1D1B"/>
<path d="M346.155 86.415H341.601V92.2779H338.799V95.8139H341.601V107.357C341.601 111.258 344.06 111.92 346.884 111.92C347.791 111.931 348.697 111.87 349.594 111.737V107.677C349.123 107.778 348.641 107.823 348.159 107.813C346.588 107.813 346.201 107.357 346.201 105.532V95.8139H349.594V92.2779H346.155V86.415Z" fill="#1D1D1B"/>
<path fill-rule="evenodd" clip-rule="evenodd" d="M372.732 111.783H377.127V84.8181H372.572V94.6504C372.073 93.7605 371.345 93.0204 370.464 92.507C369.583 91.9936 368.581 91.7255 367.562 91.7304C362.62 91.7304 360.115 96.6123 360.115 101.882C360.115 107.152 362.598 112.353 367.653 112.353C368.705 112.407 369.748 112.15 370.655 111.615C371.562 111.079 372.292 110.289 372.754 109.342V111.783H372.732ZM372.732 101.95C372.732 105.167 371.821 108.27 368.769 108.27C365.718 108.27 364.715 105.053 364.715 101.996C364.715 98.9392 365.672 95.8139 368.701 95.8139C371.73 95.8139 372.663 98.848 372.663 102.019L372.732 101.95Z" fill="#1D1D1B"/>
<path fill-rule="evenodd" clip-rule="evenodd" d="M396.507 103.365C396.826 97.3423 394.07 91.7304 388.354 91.7304C383.253 91.7304 379.769 96.2929 379.769 102.065C379.769 107.836 383.048 112.353 388.354 112.353C392.157 112.353 394.913 110.391 396.211 105.783H392.157C391.888 106.532 391.392 107.178 390.739 107.632C390.086 108.086 389.308 108.325 388.514 108.315C385.94 108.315 384.528 106.764 384.392 103.365H396.507ZM384.392 99.943C384.37 99.4198 384.453 98.8975 384.634 98.4062C384.815 97.915 385.091 97.4645 385.447 97.0807C385.802 96.6968 386.23 96.3873 386.706 96.1699C387.181 95.9525 387.695 95.8315 388.218 95.8139C390.495 95.8139 391.474 97.2511 391.884 99.9658L384.392 99.943Z" fill="#1D1D1B"/>
<path d="M399.354 111.828H403.977V84.8181H399.354V111.828Z" fill="#1D1D1B"/>
<path d="M422.264 111.828H427.365V89.8141H434.311V84.8181H415.295V89.8141H422.264V111.828Z" fill="#1D1D1B"/>
<path d="M433.491 111.783H438.046V103.023C438.046 99.578 439.207 96.7264 442.6 96.7264C443.161 96.7285 443.719 96.7974 444.263 96.9317V91.9357C443.943 91.8108 443.604 91.7414 443.261 91.7304C442.069 91.8064 440.926 92.235 439.978 92.9619C439.029 93.6888 438.317 94.6814 437.932 95.8139V92.2779H433.537V111.783H433.491Z" fill="#1D1D1B"/>
<path fill-rule="evenodd" clip-rule="evenodd" d="M456.583 104.255C456.583 105.441 456.447 108.817 452.848 108.817C451.345 108.817 450.025 108.315 450.025 106.308C450.025 104.3 451.323 103.776 452.757 103.433C454.192 103.091 455.809 103.091 456.583 102.293V104.3V104.255ZM450.548 98.2776C450.519 97.8738 450.579 97.4684 450.724 97.0903C450.868 96.7122 451.094 96.3706 451.386 96.0898C451.677 95.8089 452.026 95.5957 452.409 95.4652C452.792 95.3348 453.198 95.2902 453.6 95.3348C455.217 95.3348 456.583 95.677 456.583 97.9811C456.583 100.285 453.964 100.057 451.118 100.559C448.271 101.061 445.402 102.065 445.402 106.49C445.327 107.267 445.422 108.051 445.681 108.787C445.939 109.523 446.355 110.194 446.9 110.752C447.444 111.31 448.104 111.743 448.832 112.02C449.561 112.296 450.341 112.41 451.118 112.353C452.183 112.399 453.245 112.206 454.226 111.787C455.208 111.369 456.083 110.736 456.788 109.935C456.824 110.576 456.931 111.211 457.107 111.828H461.776C461.317 110.424 461.123 108.946 461.206 107.471V97.2967C461.206 92.7341 457.175 91.7304 453.828 91.7304C450.047 91.7304 446.199 93.2588 445.925 98.2776H450.548Z" fill="#1D1D1B"/>
<path d="M464.782 111.783H469.336V101.585C469.336 97.5932 470.407 95.9735 472.912 95.9735C475.052 95.9735 475.872 97.5704 475.872 100.787V111.783H480.427V99.8061C480.427 94.947 479.197 91.7304 474.301 91.7304C473.227 91.7511 472.18 92.0662 471.273 92.6413C470.365 93.2164 469.633 94.0296 469.154 94.9926V92.2779H464.782V111.783Z" fill="#1D1D1B"/>
<path d="M483.205 105.464C483.41 110.665 487.213 112.308 491.108 112.308C495.002 112.308 498.782 110.642 498.782 105.464C498.782 101.836 496.141 100.696 493.453 99.9658C490.766 99.2358 488.215 98.9848 488.215 97.0686C488.215 95.1523 489.741 95.2435 490.789 95.2435C492.451 95.2435 493.818 95.8139 493.932 97.8898H498.327C497.962 93.0763 494.592 91.6391 490.926 91.6391C487.259 91.6391 483.615 92.9394 483.615 97.9354C483.615 101.38 486.28 102.498 488.944 103.16C492.246 103.981 494.159 104.551 494.159 106.171C494.159 107.791 492.474 108.68 491.153 108.68C490.696 108.73 490.234 108.68 489.797 108.535C489.361 108.389 488.96 108.152 488.624 107.838C488.287 107.525 488.021 107.142 487.845 106.717C487.668 106.291 487.585 105.833 487.601 105.372L483.205 105.464Z" fill="#1D1D1B"/>
<path fill-rule="evenodd" clip-rule="evenodd" d="M501.47 118.627H506.024V109.502C506.524 110.398 507.255 111.143 508.14 111.661C509.025 112.178 510.032 112.449 511.057 112.444C515.976 112.444 518.436 107.562 518.436 102.338C518.436 97.1142 516.158 91.8216 510.807 91.8216C509.77 91.7993 508.749 92.0728 507.862 92.61C506.975 93.1472 506.258 93.9261 505.797 94.8557V92.2779H501.47V118.627ZM509.941 108.224C506.958 108.224 505.91 105.19 505.91 102.019C505.91 98.848 506.89 95.6998 509.918 95.6998C512.947 95.6998 513.949 98.9164 513.949 102.019C513.949 105.121 512.97 108.224 509.941 108.224Z" fill="#1D1D1B"/>
<path fill-rule="evenodd" clip-rule="evenodd" d="M520.804 102.065C520.804 108.27 524.197 112.353 529.458 112.353C534.719 112.353 538.18 108.27 538.18 102.065C538.18 95.8595 534.764 91.7304 529.458 91.7304C524.152 91.7304 520.804 95.8367 520.804 102.065ZM525.359 102.065C525.359 98.9392 526.293 95.791 529.412 95.791C532.532 95.791 533.512 98.9392 533.512 102.065C533.512 105.19 532.578 108.315 529.412 108.315C526.247 108.315 525.359 105.167 525.359 102.065Z" fill="#1D1D1B"/>
<path d="M541.164 111.783H545.718V103.023C545.718 99.578 546.902 96.7264 550.273 96.7264C550.833 96.7314 551.391 96.8003 551.935 96.9317V91.9357C551.615 91.8108 551.277 91.7414 550.933 91.7304C549.741 91.8034 548.596 92.2309 547.647 92.9582C546.698 93.6855 545.987 94.6797 545.604 95.8139V92.2779H541.232V111.783H541.164Z" fill="#1D1D1B"/>
<path d="M555.078 86.415V92.2779H552.277V95.8139H555.078V107.357C555.078 111.258 557.538 111.92 560.361 111.92C561.268 111.931 562.174 111.87 563.072 111.737V107.677C562.6 107.778 562.119 107.823 561.637 107.813C560.065 107.813 559.678 107.357 559.678 105.532V95.8139H563.072V92.2779H559.678V86.415H555.078Z" fill="#1D1D1B"/>
</svg>
