<svg width="513" height="200" viewBox="0 0 513 200" fill="none" xmlns="http://www.w3.org/2000/svg">
<path d="M309.237 90.9645V109.385H260.981V132.41H302.802V149.438H260.981V190.603H239.023V90.9645H309.237Z" fill="#464A51"/>
<path d="M379.3 189.836C374.546 191.833 369.743 192.837 364.896 192.837C357.248 192.837 350.374 191.513 344.264 188.861C338.155 186.205 333.006 182.558 328.81 177.905C324.614 173.255 321.398 167.785 319.16 161.506C316.921 155.228 315.802 148.459 315.802 141.206C315.802 133.758 316.921 126.851 319.16 120.479C321.398 114.108 324.614 108.548 328.81 103.801C333.006 99.0579 338.155 95.338 344.264 92.6375C350.374 89.941 357.248 88.5928 364.896 88.5928C370.02 88.5928 374.986 89.3603 379.792 90.8954C384.591 92.4263 388.93 94.6882 392.801 97.6649C396.667 100.642 399.862 104.313 402.378 108.686C404.897 113.064 406.436 118.083 406.993 123.756H386.016C384.709 118.177 382.19 113.99 378.461 111.196C374.733 108.406 370.211 107.013 364.896 107.013C359.951 107.013 355.754 107.967 352.307 109.872C348.855 111.781 346.059 114.339 343.914 117.547C341.769 120.759 340.21 124.41 339.23 128.503C338.249 132.597 337.76 136.828 337.76 141.206C337.76 145.389 338.249 149.462 339.23 153.413C340.21 157.369 341.769 160.926 343.914 164.089C346.059 167.253 348.855 169.787 352.307 171.695C355.754 173.604 359.951 174.554 364.896 174.554C372.169 174.554 377.782 172.719 381.75 169.044C385.71 165.368 388.018 160.04 388.669 153.064H366.573V136.735H408.536V190.603H394.547L392.308 179.302C388.393 184.321 384.058 187.833 379.3 189.836Z" fill="#464A51"/>
<path d="M488.384 117.547C487.077 115.456 485.445 113.62 483.487 112.036C481.526 110.457 479.312 109.222 476.845 108.341C474.37 107.456 471.786 107.013 469.083 107.013C464.138 107.013 459.942 107.967 456.494 109.872C453.043 111.781 450.247 114.339 448.102 117.547C445.953 120.759 444.394 124.41 443.413 128.503C442.436 132.597 441.948 136.828 441.948 141.202C441.948 145.389 442.436 149.458 443.413 153.413C444.394 157.369 445.953 160.93 448.102 164.089C450.247 167.253 453.043 169.787 456.494 171.695C459.942 173.604 464.138 174.554 469.083 174.554C475.795 174.554 481.041 172.512 484.814 168.414C488.591 164.321 490.899 158.924 491.742 152.223H513C512.438 158.461 510.993 164.089 508.665 169.113C506.333 174.136 503.252 178.416 499.434 181.953C495.608 185.49 491.131 188.187 486.007 190.047C480.875 191.907 475.233 192.837 469.083 192.837C461.436 192.837 454.557 191.513 448.448 188.861C442.343 186.209 437.194 182.558 432.993 177.905C428.801 173.251 425.582 167.789 423.343 161.506C421.109 155.224 419.989 148.459 419.989 141.202C419.989 133.762 421.109 126.855 423.343 120.479C425.582 114.108 428.801 108.548 432.993 103.801C437.194 99.0579 442.343 95.338 448.448 92.6375C454.557 89.941 461.436 88.5928 469.083 88.5928C474.582 88.5928 479.78 89.3847 484.676 90.9644C489.572 92.5481 493.952 94.8507 497.827 97.8721C501.689 100.893 504.884 104.642 507.408 109.109C509.923 113.572 511.506 118.688 512.158 124.455H490.899C490.529 121.945 489.686 119.643 488.384 117.547Z" fill="#464A51"/>
<path d="M0 200H200.45V0H0V200Z" fill="#7FCC28"/>
<path d="M147.957 190.014H125.816C124.359 190.014 123.659 188.236 124.725 187.245L167.808 147.318C170.799 144.544 172.5 140.65 172.5 136.577V117.072C172.5 112.272 168.601 108.378 163.786 108.378H142.862C139.85 108.378 136.948 109.495 134.713 111.509L86.9096 154.615C86.6124 154.883 86.2298 155.03 85.835 155.03H75.0736C74.1863 155.03 73.47 154.315 73.47 153.43V142.965C73.47 142.514 73.6612 142.087 73.9909 141.783L124.408 95.8132C128.812 91.801 134.563 89.5757 140.525 89.5757H164.486C179.122 89.5757 190.987 101.413 190.987 116.016V135.509C190.987 145.462 186.811 154.96 179.464 161.693L149.04 189.596C148.743 189.864 148.36 190.014 147.957 190.014Z" fill="white"/>
<path d="M80.7638 89.9941L50.3396 117.897C42.993 124.634 38.813 134.128 38.813 144.081V163.574C38.813 178.177 50.6774 190.014 65.3177 190.014H89.2785C95.2413 190.014 100.992 187.789 105.396 183.773L155.813 137.807C156.143 137.503 156.334 137.076 156.334 136.625V126.16C156.334 125.275 155.614 124.56 154.73 124.56H143.969C143.574 124.56 143.192 124.707 142.894 124.975L95.0907 168.081C92.8562 170.1 89.9542 171.212 86.9423 171.212H66.0177C61.2028 171.212 57.2995 167.322 57.2995 162.518V143.013C57.2995 138.936 59.0008 135.046 61.9964 132.272L105.079 92.3452C106.145 91.3543 105.445 89.5718 103.988 89.5718H81.8465C81.4435 89.5718 81.0569 89.7261 80.7638 89.9941Z" fill="white"/>
</svg>
