<svg width="897" height="160" viewBox="0 0 897 160" fill="none" xmlns="http://www.w3.org/2000/svg">
<path d="M0 55C0 35.7482 0 26.1223 3.74524 18.7691C7.03965 12.301 12.2964 7.0423 18.762 3.74665C26.1125 0 35.7347 0 54.9793 0H104.96C124.205 0 133.827 0 141.178 3.74665C147.643 7.0423 152.9 12.301 156.195 18.7691C159.94 26.1223 159.94 35.7482 159.94 55V105C159.94 124.252 159.94 133.878 156.195 141.231C152.9 147.699 147.643 152.958 141.178 156.253C133.827 160 124.205 160 104.96 160H54.9793C35.7347 160 26.1125 160 18.762 156.253C12.2964 152.958 7.03965 147.699 3.74524 141.231C0 133.878 0 124.252 0 105V55Z" fill="#F43F5E"/>
<path d="M58.0058 35.1562C48.9191 35.1562 41.5468 42.6935 41.5468 51.9836V96.8567C41.5468 105.27 47.5818 112.229 55.4513 113.491L47.5646 121.554C46.3646 122.781 47.2218 124.902 48.9191 124.902H55.7255C57.1829 124.902 58.5715 124.306 59.6003 123.255L68.9784 113.684H90.9237L100.285 123.255C101.313 124.306 102.702 124.902 104.159 124.902H110.983C112.697 124.902 113.555 122.781 112.338 121.554L104.451 113.491C112.338 112.247 118.355 105.27 118.355 96.8567V51.9836C118.355 42.6935 110.983 35.1562 101.896 35.1562H58.0058ZM52.5195 57.5928C52.5195 54.4903 54.9712 51.9836 58.0058 51.9836H71.7216C74.7562 51.9836 77.2079 54.4903 77.2079 57.5928V74.4201C77.2079 77.5226 74.7562 80.0293 71.7216 80.0293H58.0058C54.9712 80.0293 52.5195 77.5226 52.5195 74.4201V57.5928ZM88.1806 51.9836H101.896C104.931 51.9836 107.383 54.4903 107.383 57.5928V74.4201C107.383 77.5226 104.931 80.0293 101.896 80.0293H88.1806C85.1459 80.0293 82.6942 77.5226 82.6942 74.4201V57.5928C82.6942 54.4903 85.1459 51.9836 88.1806 51.9836ZM52.5195 96.8567C52.5195 95.3689 53.0975 93.9423 54.1264 92.8904C55.1552 91.8384 56.5507 91.2475 58.0058 91.2475C59.4608 91.2475 60.8563 91.8384 61.8853 92.8904C62.9141 93.9423 63.4921 95.3689 63.4921 96.8567C63.4921 98.3444 62.9141 99.771 61.8853 100.823C60.8563 101.875 59.4608 102.466 58.0058 102.466C56.5507 102.466 55.1552 101.875 54.1264 100.823C53.0975 99.771 52.5195 98.3444 52.5195 96.8567ZM101.896 91.2475C103.351 91.2475 104.747 91.8384 105.776 92.8904C106.805 93.9423 107.383 95.3689 107.383 96.8567C107.383 98.3444 106.805 99.771 105.776 100.823C104.747 101.875 103.351 102.466 101.896 102.466C100.441 102.466 99.0458 101.875 98.0169 100.823C96.9881 99.771 96.41 98.3444 96.41 96.8567C96.41 95.3689 96.9881 93.9423 98.0169 92.8904C99.0458 91.8384 100.441 91.2475 101.896 91.2475Z" fill="#FFE4E6"/>
<path d="M201.881 51.7484V39.6H265.685V51.7484H240.968V119.6H226.598V51.7484H201.881Z" fill="#F43F5E"/>
<path d="M271.132 119.6V59.6H284.838V69.6H285.463C286.556 66.1365 288.43 63.4672 291.086 61.5922C293.767 59.6911 296.826 58.7406 300.262 58.7406C301.043 58.7406 301.915 58.7797 302.878 58.8578C303.867 58.9099 304.687 59.001 305.338 59.1313V72.1391C304.739 71.9307 303.789 71.7484 302.488 71.5922C301.212 71.4099 299.976 71.3187 298.778 71.3187C296.201 71.3187 293.884 71.8786 291.828 72.9984C289.797 74.0922 288.196 75.6156 287.025 77.5687C285.853 79.5219 285.268 81.7745 285.268 84.3266V119.6H271.132Z" fill="#F43F5E"/>
<path d="M330.914 120.811C327.114 120.811 323.691 120.134 320.645 118.78C317.625 117.399 315.23 115.368 313.46 112.686C311.716 110.004 310.844 106.696 310.844 102.764C310.844 99.3786 311.469 96.5792 312.718 94.3656C313.968 92.1521 315.673 90.3813 317.833 89.0531C319.994 87.725 322.428 86.7224 325.135 86.0453C327.869 85.3422 330.693 84.8344 333.609 84.5219C337.123 84.1573 339.974 83.8318 342.16 83.5453C344.347 83.2328 345.935 82.7641 346.924 82.1391C347.939 81.488 348.447 80.4854 348.447 79.1312V78.8969C348.447 75.9542 347.575 73.6755 345.831 72.0609C344.087 70.4464 341.574 69.6391 338.294 69.6391C334.832 69.6391 332.086 70.3943 330.055 71.9047C328.051 73.4151 326.697 75.199 325.994 77.2562L312.796 75.3812C313.838 71.7354 315.556 68.6885 317.951 66.2406C320.345 63.7667 323.274 61.9177 326.736 60.6938C330.199 59.4438 334.025 58.8188 338.216 58.8188C341.106 58.8188 343.982 59.1573 346.846 59.8344C349.709 60.5115 352.326 61.6312 354.695 63.1937C357.063 64.7302 358.964 66.8266 360.396 69.4828C361.853 72.1391 362.582 75.4594 362.582 79.4437V119.6H348.994V111.358H348.525C347.666 113.024 346.455 114.587 344.894 116.045C343.358 117.478 341.418 118.636 339.075 119.522C336.759 120.381 334.038 120.811 330.914 120.811ZM334.585 110.42C337.422 110.42 339.882 109.86 341.965 108.741C344.047 107.595 345.648 106.084 346.768 104.209C347.913 102.334 348.486 100.29 348.486 98.0766V91.0062C348.043 91.3708 347.288 91.7094 346.221 92.0219C345.18 92.3344 344.008 92.6078 342.707 92.8422C341.405 93.0766 340.117 93.2849 338.841 93.4672C337.566 93.6495 336.459 93.8057 335.522 93.9359C333.413 94.2224 331.526 94.6911 329.86 95.3422C328.194 95.9932 326.879 96.9047 325.916 98.0766C324.953 99.2224 324.472 100.707 324.472 102.53C324.472 105.134 325.422 107.1 327.322 108.428C329.222 109.756 331.643 110.42 334.585 110.42Z" fill="#F43F5E"/>
<path d="M390.931 84.4437V119.6H376.796V59.6H390.306V69.7953H391.009C392.389 66.4359 394.588 63.7667 397.608 61.7875C400.654 59.8083 404.415 58.8188 408.893 58.8188C413.032 58.8188 416.637 59.7042 419.709 61.475C422.807 63.2458 425.202 65.8109 426.894 69.1703C428.612 72.5297 429.458 76.6052 429.432 81.3969V119.6H415.297V83.5844C415.297 79.574 414.255 76.4359 412.173 74.1703C410.116 71.9047 407.266 70.7719 403.621 70.7719C401.148 70.7719 398.949 71.3187 397.022 72.4125C395.122 73.4802 393.625 75.0297 392.532 77.0609C391.465 79.0922 390.931 81.5531 390.931 84.4437Z" fill="#F43F5E"/>
<path d="M491.206 75.4594L478.32 76.8656C477.955 75.5635 477.318 74.3396 476.406 73.1937C475.521 72.0479 474.324 71.1234 472.814 70.4203C471.304 69.7172 469.456 69.3656 467.269 69.3656C464.328 69.3656 461.855 70.0036 459.85 71.2797C457.872 72.5557 456.896 74.2094 456.922 76.2406C456.896 77.9854 457.533 79.4047 458.835 80.4984C460.163 81.5922 462.349 82.4906 465.395 83.1937L475.626 85.3812C481.3 86.6052 485.518 88.5453 488.277 91.2016C491.062 93.8578 492.468 97.3344 492.494 101.631C492.468 105.407 491.362 108.741 489.175 111.631C487.014 114.496 484.008 116.735 480.155 118.35C476.302 119.965 471.877 120.772 466.879 120.772C459.538 120.772 453.629 119.235 449.151 116.162C444.674 113.064 442.005 108.754 441.146 103.233L454.93 101.905C455.555 104.613 456.883 106.657 458.913 108.037C460.944 109.418 463.586 110.108 466.84 110.108C470.198 110.108 472.892 109.418 474.923 108.037C476.979 106.657 478.007 104.952 478.007 102.92C478.007 101.202 477.344 99.7823 476.016 98.6625C474.714 97.5427 472.684 96.6833 469.925 96.0844L459.694 93.9359C453.941 92.738 449.685 90.7198 446.925 87.8812C444.166 85.0167 442.799 81.3969 442.825 77.0219C442.799 73.324 443.802 70.1208 445.832 67.4125C447.889 64.6781 450.739 62.5688 454.384 61.0844C458.054 59.574 462.284 58.8188 467.074 58.8188C474.103 58.8188 479.634 60.3161 483.669 63.3109C487.73 66.3057 490.242 70.3552 491.206 75.4594Z" fill="#F43F5E"/>
<path d="M504.15 142.1V59.6H518.051V69.5219H518.871C519.6 68.0635 520.628 66.5141 521.956 64.8734C523.283 63.2068 525.08 61.7875 527.344 60.6156C529.609 59.4177 532.499 58.8188 536.013 58.8188C540.647 58.8188 544.825 60.0036 548.547 62.3734C552.296 64.7172 555.263 68.1938 557.45 72.8031C559.663 77.3865 560.769 83.0115 560.769 89.6781C560.769 96.2667 559.689 101.866 557.528 106.475C555.368 111.084 552.426 114.6 548.703 117.022C544.981 119.444 540.764 120.655 536.052 120.655C532.616 120.655 529.765 120.082 527.501 118.936C525.236 117.79 523.414 116.41 522.034 114.795C520.68 113.155 519.626 111.605 518.871 110.147H518.285V142.1H504.15ZM518.012 89.6C518.012 93.4802 518.559 96.8786 519.652 99.7953C520.771 102.712 522.372 104.991 524.455 106.631C526.563 108.246 529.115 109.053 532.108 109.053C535.232 109.053 537.848 108.22 539.957 106.553C542.065 104.86 543.653 102.556 544.721 99.6391C545.814 96.6964 546.361 93.35 546.361 89.6C546.361 85.876 545.827 82.5687 544.76 79.6781C543.692 76.7875 542.104 74.5219 539.996 72.8812C537.887 71.2406 535.258 70.4203 532.108 70.4203C529.088 70.4203 526.524 71.2146 524.416 72.8031C522.307 74.3917 520.706 76.6182 519.613 79.4828C518.546 82.3474 518.012 85.7198 518.012 89.6Z" fill="#F43F5E"/>
<path d="M599.036 120.772C593.179 120.772 588.103 119.483 583.807 116.905C579.512 114.327 576.18 110.72 573.811 106.084C571.468 101.449 570.297 96.0323 570.297 89.8344C570.297 83.6365 571.468 78.2068 573.811 73.5453C576.18 68.8839 579.512 65.2641 583.807 62.6859C588.103 60.1078 593.179 58.8188 599.036 58.8188C604.893 58.8188 609.969 60.1078 614.265 62.6859C618.56 65.2641 621.879 68.8839 624.222 73.5453C626.591 78.2068 627.775 83.6365 627.775 89.8344C627.775 96.0323 626.591 101.449 624.222 106.084C621.879 110.72 618.56 114.327 614.265 116.905C609.969 119.483 604.893 120.772 599.036 120.772ZM599.114 109.444C602.29 109.444 604.945 108.571 607.08 106.827C609.215 105.056 610.802 102.686 611.844 99.7172C612.911 96.7484 613.445 93.4411 613.445 89.7953C613.445 86.1234 612.911 82.8031 611.844 79.8344C610.802 76.8396 609.215 74.4568 607.08 72.6859C604.945 70.9151 602.29 70.0297 599.114 70.0297C595.86 70.0297 593.153 70.9151 590.992 72.6859C588.858 74.4568 587.257 76.8396 586.189 79.8344C585.148 82.8031 584.627 86.1234 584.627 89.7953C584.627 93.4411 585.148 96.7484 586.189 99.7172C587.257 102.686 588.858 105.056 590.992 106.827C593.153 108.571 595.86 109.444 599.114 109.444Z" fill="#F43F5E"/>
<path d="M639.773 119.6V59.6H653.478V69.6H654.103C655.197 66.1365 657.071 63.4672 659.726 61.5922C662.407 59.6911 665.466 58.7406 668.902 58.7406C669.683 58.7406 670.555 58.7797 671.519 58.8578C672.508 58.9099 673.328 59.001 673.979 59.1313V72.1391C673.38 71.9307 672.43 71.7484 671.128 71.5922C669.852 71.4099 668.616 71.3187 667.419 71.3187C664.841 71.3187 662.525 71.8786 660.468 72.9984C658.438 74.0922 656.837 75.6156 655.665 77.5687C654.494 79.5219 653.908 81.7745 653.908 84.3266V119.6H639.773Z" fill="#F43F5E"/>
<path d="M716.541 59.6V70.5375H682.061V59.6H716.541ZM690.574 45.225H704.709V101.553C704.709 103.454 704.995 104.912 705.568 105.928C706.167 106.918 706.948 107.595 707.911 107.959C708.874 108.324 709.942 108.506 711.113 108.506C711.998 108.506 712.805 108.441 713.534 108.311C714.289 108.181 714.862 108.064 715.252 107.959L717.634 119.014C716.879 119.274 715.799 119.561 714.393 119.873C713.013 120.186 711.321 120.368 709.317 120.42C705.776 120.524 702.588 119.991 699.75 118.819C696.913 117.621 694.661 115.772 692.995 113.272C691.355 110.772 690.548 107.647 690.574 103.897V45.225Z" fill="#F43F5E"/>
<path d="M745.621 120.811C741.821 120.811 738.398 120.134 735.352 118.78C732.332 117.399 729.937 115.368 728.167 112.686C726.423 110.004 725.551 106.696 725.551 102.764C725.551 99.3786 726.176 96.5792 727.425 94.3656C728.675 92.1521 730.38 90.3813 732.54 89.0531C734.701 87.725 737.135 86.7224 739.842 86.0453C742.576 85.3422 745.4 84.8344 748.316 84.5219C751.83 84.1573 754.681 83.8318 756.867 83.5453C759.054 83.2328 760.642 82.7641 761.631 82.1391C762.646 81.488 763.154 80.4854 763.154 79.1312V78.8969C763.154 75.9542 762.282 73.6755 760.538 72.0609C758.794 70.4464 756.282 69.6391 753.002 69.6391C749.539 69.6391 746.793 70.3943 744.762 71.9047C742.758 73.4151 741.404 75.199 740.701 77.2562L727.503 75.3812C728.545 71.7354 730.263 68.6885 732.658 66.2406C735.053 63.7667 737.981 61.9177 741.443 60.6938C744.906 59.4438 748.732 58.8188 752.923 58.8188C755.813 58.8188 758.689 59.1573 761.553 59.8344C764.417 60.5115 767.033 61.6312 769.402 63.1937C771.771 64.7302 773.671 66.8266 775.103 69.4828C776.56 72.1391 777.289 75.4594 777.289 79.4437V119.6H763.701V111.358H763.232C762.373 113.024 761.162 114.587 759.601 116.045C758.065 117.478 756.125 118.636 753.782 119.522C751.466 120.381 748.745 120.811 745.621 120.811ZM749.292 110.42C752.129 110.42 754.589 109.86 756.672 108.741C758.755 107.595 760.356 106.084 761.475 104.209C762.62 102.334 763.193 100.29 763.193 98.0766V91.0062C762.75 91.3708 761.996 91.7094 760.928 92.0219C759.887 92.3344 758.716 92.6078 757.414 92.8422C756.112 93.0766 754.824 93.2849 753.548 93.4672C752.273 93.6495 751.166 93.8057 750.229 93.9359C748.121 94.2224 746.233 94.6911 744.567 95.3422C742.901 95.9932 741.587 96.9047 740.623 98.0766C739.66 99.2224 739.179 100.707 739.179 102.53C739.179 105.134 740.129 107.1 742.029 108.428C743.929 109.756 746.35 110.42 749.292 110.42Z" fill="#F43F5E"/>
<path d="M803.49 39.6V47.5687C803.49 49.8604 803.048 52.2432 802.163 54.7172C801.304 57.1651 800.119 59.5089 798.609 61.7484C797.099 63.962 795.381 65.863 793.455 67.4516L786.895 63.1937C788.327 61.0323 789.576 58.7016 790.644 56.2016C791.711 53.6755 792.245 50.824 792.245 47.6469V39.6H803.49Z" fill="#F43F5E"/>
<path d="M812.657 119.6V59.6H826.167V69.7953H826.87C828.12 66.3578 830.189 63.6755 833.079 61.7484C835.968 59.7953 839.418 58.8188 843.426 58.8188C847.487 58.8188 850.911 59.8083 853.696 61.7875C856.507 63.7406 858.486 66.4099 859.631 69.7953H860.256C861.584 66.462 863.822 63.8057 866.972 61.8266C870.148 59.8214 873.91 58.8188 878.257 58.8188C883.776 58.8188 888.279 60.5635 891.768 64.0531C895.256 67.5427 897 72.6339 897 79.3266V119.6H882.826V81.5141C882.826 77.7901 881.836 75.0687 879.858 73.35C877.88 71.6052 875.459 70.7328 872.595 70.7328C869.185 70.7328 866.517 71.8005 864.59 73.9359C862.69 76.0453 861.74 78.7927 861.74 82.1781V119.6H847.878V80.9281C847.878 77.8292 846.941 75.3552 845.066 73.5062C843.218 71.6573 840.797 70.7328 837.804 70.7328C835.773 70.7328 833.925 71.2536 832.259 72.2953C830.593 73.3109 829.265 74.7562 828.276 76.6312C827.287 78.4802 826.792 80.6417 826.792 83.1156V119.6H812.657Z" fill="#F43F5E"/>
</svg>
