<svg width="640" height="160" viewBox="0 0 640 160" fill="none" xmlns="http://www.w3.org/2000/svg">
<path d="M0 55C0 35.7482 0 26.1223 3.74698 18.7691C7.04291 12.301 12.3021 7.0423 18.7707 3.74665C26.1246 0 35.7513 0 55.0048 0H105.009C124.263 0 133.889 0 141.243 3.74665C147.712 7.0423 152.971 12.301 156.267 18.7691C160.014 26.1223 160.014 35.7482 160.014 55V105C160.014 124.252 160.014 133.878 156.267 141.231C152.971 147.699 147.712 152.958 141.243 156.253C133.889 160 124.263 160 105.009 160H55.0048C35.7513 160 26.1246 160 18.7707 156.253C12.3021 152.958 7.04291 147.699 3.74698 141.231C0 133.878 0 124.252 0 105V55Z" fill="#F43F5E"/>
<path d="M58.0327 35.1563C48.9418 35.1563 41.5661 42.6935 41.5661 51.9836V96.8567C41.5661 105.27 47.6038 112.229 55.477 113.491L47.5867 121.554C46.386 122.781 47.2437 124.902 48.9418 124.902H55.7514C57.2094 124.902 58.5986 124.306 59.6279 123.255L69.0104 113.684H90.9658L100.331 123.255C101.36 124.306 102.75 124.902 104.208 124.902H111.034C112.75 124.902 113.607 122.781 112.39 121.554L104.499 113.491C112.39 112.247 118.41 105.27 118.41 96.8567V51.9836C118.41 42.6935 111.034 35.1563 101.943 35.1563H58.0327ZM52.5438 57.5928C52.5438 54.4903 54.9966 51.9836 58.0327 51.9836H71.7548C74.7909 51.9836 77.2437 54.4903 77.2437 57.5928V74.4201C77.2437 77.5226 74.7909 80.0293 71.7548 80.0293H58.0327C54.9966 80.0293 52.5438 77.5226 52.5438 74.4201V57.5928ZM88.2214 51.9836H101.943C104.98 51.9836 107.432 54.4903 107.432 57.5928V74.4201C107.432 77.5226 104.98 80.0293 101.943 80.0293H88.2214C85.1853 80.0293 82.7325 77.5226 82.7325 74.4201V57.5928C82.7325 54.4903 85.1853 51.9836 88.2214 51.9836ZM52.5438 96.8567C52.5438 95.369 53.1221 93.9423 54.1515 92.8904C55.1808 91.8384 56.5769 91.2475 58.0327 91.2475C59.4883 91.2475 60.8845 91.8384 61.9139 92.8904C62.9432 93.9423 63.5215 95.369 63.5215 96.8567C63.5215 98.3444 62.9432 99.771 61.9139 100.823C60.8845 101.875 59.4883 102.466 58.0327 102.466C56.5769 102.466 55.1808 101.875 54.1515 100.823C53.1221 99.771 52.5438 98.3444 52.5438 96.8567ZM101.943 91.2475C103.399 91.2475 104.795 91.8384 105.825 92.8904C106.854 93.9423 107.432 95.369 107.432 96.8567C107.432 98.3444 106.854 99.771 105.825 100.823C104.795 101.875 103.399 102.466 101.943 102.466C100.488 102.466 99.0917 101.875 98.0623 100.823C97.033 99.771 96.4547 98.3444 96.4547 96.8567C96.4547 95.369 97.033 93.9423 98.0623 92.8904C99.0917 91.8384 100.488 91.2475 101.943 91.2475Z" fill="#FFE4E6"/>
<path d="M221.14 64.7677V56.5273H259.968V64.7677H245.494V103.8H235.613V64.7677H221.14Z" fill="#171717"/>
<path d="M262.495 103.8V68.3455H272.029V74.5315H272.398C273.045 72.331 274.13 70.6691 275.653 69.5457C277.177 68.407 278.931 67.8376 280.917 67.8376C281.409 67.8376 281.94 67.8684 282.509 67.93C283.079 67.9915 283.579 68.0762 284.01 68.1839V76.909C283.548 76.7705 282.91 76.6474 282.094 76.5397C281.278 76.432 280.532 76.3781 279.855 76.3781C278.408 76.3781 277.115 76.6936 275.977 77.3245C274.853 77.94 273.961 78.8018 273.299 79.9097C272.652 81.0177 272.329 82.2949 272.329 83.7414V103.8H262.495Z" fill="#171717"/>
<path d="M298.189 104.469C295.927 104.469 293.911 104.077 292.141 103.292C290.372 102.492 288.971 101.315 287.94 99.7606C286.924 98.191 286.416 96.2367 286.416 93.8977C286.416 91.928 286.778 90.2737 287.501 88.9349C288.225 87.5962 289.21 86.519 290.456 85.7034C291.703 84.8878 293.119 84.2723 294.704 83.8568C296.304 83.4413 297.982 83.149 299.736 82.9797C301.798 82.7643 303.46 82.5642 304.722 82.3795C305.984 82.1795 306.9 81.8871 307.469 81.5024C308.039 81.1177 308.324 80.5483 308.324 79.7943V79.6558C308.324 78.1939 307.862 77.0629 306.938 76.2627C306.031 75.4625 304.738 75.0624 303.06 75.0624C301.29 75.0624 299.882 75.4548 298.836 76.2396C297.789 77.009 297.097 77.9785 296.758 79.148L287.663 78.4094C288.125 76.255 289.033 74.393 290.387 72.8234C291.741 71.2384 293.488 70.0228 295.627 69.1764C297.782 68.3147 300.275 67.8838 303.106 67.8838C305.076 67.8838 306.962 68.1146 308.762 68.5763C310.578 69.0379 312.186 69.7535 313.587 70.7229C315.003 71.6924 316.118 72.9388 316.934 74.4623C317.75 75.9703 318.158 77.7785 318.158 79.8866V103.8H308.831V98.8835H308.554C307.985 99.9914 307.223 100.969 306.269 101.815C305.315 102.646 304.168 103.3 302.829 103.777C301.491 104.239 299.944 104.469 298.189 104.469ZM301.006 97.6832C302.452 97.6832 303.73 97.3985 304.838 96.8291C305.946 96.2444 306.815 95.4596 307.446 94.4747C308.077 93.4899 308.393 92.3742 308.393 91.1278V87.3653C308.085 87.5654 307.662 87.75 307.123 87.9193C306.6 88.0732 306.007 88.2194 305.346 88.3579C304.684 88.481 304.022 88.5964 303.36 88.7041C302.699 88.7965 302.098 88.8811 301.56 88.958C300.406 89.1273 299.398 89.3966 298.536 89.7659C297.674 90.1352 297.005 90.6353 296.527 91.2663C296.05 91.8818 295.812 92.6512 295.812 93.5745C295.812 94.9133 296.297 95.9366 297.266 96.6445C298.251 97.3369 299.498 97.6832 301.006 97.6832Z" fill="#171717"/>
<path d="M335.621 83.3028V103.8H325.787V68.3455H335.159V74.6008H335.575C336.36 72.5388 337.675 70.9076 339.522 69.7073C341.369 68.4916 343.608 67.8838 346.24 67.8838C348.702 67.8838 350.849 68.4224 352.68 69.4996C354.512 70.5768 355.935 72.1156 356.951 74.1161C357.967 76.1011 358.474 78.4709 358.474 81.2254V103.8H348.64V82.9797C348.656 80.8099 348.102 79.1172 346.978 77.9016C345.855 76.6705 344.308 76.055 342.338 76.055C341.015 76.055 339.845 76.3397 338.83 76.909C337.829 77.4784 337.044 78.3094 336.475 79.4019C335.921 80.4791 335.636 81.7794 335.621 83.3028Z" fill="#171717"/>
<path d="M395.727 78.4555L386.724 79.0095C386.57 78.2401 386.239 77.5476 385.731 76.9321C385.223 76.3012 384.554 75.8011 383.723 75.4317C382.907 75.047 381.93 74.8547 380.791 74.8547C379.268 74.8547 377.983 75.1778 376.936 75.8241C375.89 76.4551 375.366 77.3014 375.366 78.3632C375.366 79.2096 375.705 79.9251 376.382 80.5099C377.059 81.0946 378.221 81.564 379.868 81.9179L386.285 83.2105C389.733 83.9184 392.303 85.0571 393.995 86.6267C395.688 88.1963 396.535 90.2583 396.535 92.8128C396.535 95.1364 395.85 97.1754 394.48 98.9296C393.126 100.684 391.264 102.053 388.894 103.038C386.539 104.008 383.823 104.492 380.745 104.492C376.051 104.492 372.312 103.515 369.526 101.561C366.756 99.5913 365.132 96.9138 364.655 93.5283L374.328 93.0205C374.62 94.4516 375.328 95.5442 376.451 96.2982C377.575 97.0369 379.014 97.4062 380.768 97.4062C382.492 97.4062 383.877 97.0753 384.923 96.4136C385.985 95.7366 386.524 94.8671 386.539 93.8053C386.524 92.9128 386.147 92.1819 385.408 91.6125C384.669 91.0277 383.531 90.5815 381.992 90.2737L375.851 89.0504C372.388 88.3579 369.811 87.1576 368.118 85.4495C366.44 83.7414 365.602 81.564 365.602 78.9172C365.602 76.6397 366.217 74.6777 367.448 73.0312C368.695 71.3846 370.442 70.1151 372.689 69.2226C374.951 68.3301 377.598 67.8838 380.63 67.8838C385.108 67.8838 388.632 68.8302 391.202 70.7229C393.788 72.6157 395.296 75.1932 395.727 78.4555Z" fill="#171717"/>
<path d="M402.727 117.095V68.3455H412.423V74.3007H412.861C413.292 73.3466 413.915 72.3772 414.731 71.3923C415.562 70.3921 416.639 69.5611 417.963 68.8994C419.302 68.2224 420.964 67.8838 422.949 67.8838C425.535 67.8838 427.92 68.5609 430.105 69.9151C432.291 71.2538 434.037 73.2774 435.345 75.9857C436.653 78.6787 437.308 82.0564 437.308 86.1189C437.308 90.0737 436.669 93.4129 435.392 96.1366C434.13 98.845 432.406 100.899 430.221 102.3C428.051 103.685 425.619 104.377 422.926 104.377C421.018 104.377 419.394 104.062 418.055 103.431C416.732 102.8 415.647 102.007 414.8 101.053C413.954 100.084 413.307 99.1066 412.861 98.1217H412.561V117.095H402.727ZM412.353 86.0727C412.353 88.1809 412.646 90.0198 413.231 91.5894C413.815 93.159 414.662 94.3824 415.77 95.2595C416.878 96.1213 418.224 96.5521 419.81 96.5521C421.41 96.5521 422.764 96.1136 423.872 95.2364C424.98 94.3439 425.819 93.1129 426.389 91.5433C426.973 89.9583 427.266 88.1348 427.266 86.0727C427.266 84.0261 426.981 82.2257 426.412 80.6714C425.842 79.1172 425.004 77.9016 423.896 77.0244C422.787 76.1473 421.425 75.7087 419.81 75.7087C418.209 75.7087 416.855 76.1319 415.747 76.9783C414.654 77.8246 413.815 79.0249 413.231 80.5791C412.646 82.1333 412.353 83.9645 412.353 86.0727Z" fill="#171717"/>
<path d="M459.884 104.492C456.298 104.492 453.197 103.731 450.581 102.207C447.98 100.668 445.972 98.5295 444.556 95.7904C443.14 93.0359 442.432 89.8429 442.432 86.2112C442.432 82.5488 443.14 79.3481 444.556 76.6089C445.972 73.8545 447.98 71.7155 450.581 70.192C453.197 68.6532 456.298 67.8838 459.884 67.8838C463.47 67.8838 466.563 68.6532 469.164 70.192C471.78 71.7155 473.796 73.8545 475.212 76.6089C476.628 79.3481 477.336 82.5488 477.336 86.2112C477.336 89.8429 476.628 93.0359 475.212 95.7904C473.796 98.5295 471.78 100.668 469.164 102.207C466.563 103.731 463.47 104.492 459.884 104.492ZM459.93 96.8753C461.562 96.8753 462.924 96.4136 464.016 95.4903C465.109 94.5517 465.932 93.2744 466.486 91.6587C467.056 90.0429 467.34 88.204 467.34 86.142C467.34 84.0799 467.056 82.2411 466.486 80.6253C465.932 79.0095 465.109 77.7323 464.016 76.7936C462.924 75.8549 461.562 75.3856 459.93 75.3856C458.284 75.3856 456.898 75.8549 455.775 76.7936C454.667 77.7323 453.828 79.0095 453.259 80.6253C452.705 82.2411 452.428 84.0799 452.428 86.142C452.428 88.204 452.705 90.0429 453.259 91.6587C453.828 93.2744 454.667 94.5517 455.775 95.4903C456.898 96.4136 458.284 96.8753 459.93 96.8753Z" fill="#171717"/>
<path d="M483.73 103.8V68.3455H493.264V74.5315H493.633C494.28 72.331 495.365 70.6691 496.888 69.5457C498.412 68.407 500.166 67.8376 502.152 67.8376C502.644 67.8376 503.175 67.8684 503.744 67.93C504.314 67.9915 504.814 68.0762 505.245 68.1839V76.909C504.783 76.7705 504.145 76.6474 503.329 76.5397C502.513 76.432 501.767 76.3781 501.09 76.3781C499.643 76.3781 498.35 76.6936 497.212 77.3245C496.088 77.94 495.195 78.8018 494.534 79.9097C493.887 81.0177 493.564 82.2949 493.564 83.7414V103.8H483.73Z" fill="#171717"/>
<path d="M530.967 68.3455V75.7318H509.614V68.3455H530.967ZM514.461 59.8511H524.295V92.9051C524.295 93.813 524.434 94.5209 524.711 95.0287C524.988 95.5211 525.373 95.8674 525.865 96.0674C526.373 96.2674 526.958 96.3675 527.619 96.3675C528.081 96.3675 528.543 96.329 529.004 96.2521C529.466 96.1597 529.82 96.0905 530.066 96.0443L531.613 103.361C531.121 103.515 530.428 103.692 529.535 103.892C528.643 104.108 527.558 104.239 526.281 104.285C523.911 104.377 521.833 104.062 520.048 103.338C518.278 102.615 516.901 101.492 515.916 99.9683C514.931 98.4449 514.446 96.5214 514.461 94.1977V59.8511Z" fill="#171717"/>
<path d="M547.484 104.469C545.221 104.469 543.205 104.077 541.435 103.292C539.666 102.492 538.265 101.315 537.234 99.7606C536.218 98.191 535.71 96.2367 535.71 93.8977C535.71 91.928 536.072 90.2737 536.795 88.9349C537.519 87.5962 538.504 86.519 539.75 85.7034C540.997 84.8878 542.413 84.2723 543.998 83.8568C545.598 83.4413 547.276 83.149 549.03 82.9797C551.092 82.7643 552.754 82.5642 554.016 82.3795C555.278 82.1795 556.194 81.8871 556.763 81.5024C557.333 81.1177 557.618 80.5483 557.618 79.7943V79.6558C557.618 78.1939 557.156 77.0629 556.233 76.2627C555.325 75.4625 554.032 75.0624 552.354 75.0624C550.585 75.0624 549.176 75.4548 548.13 76.2396C547.083 77.009 546.391 77.9785 546.052 79.148L536.957 78.4094C537.419 76.255 538.327 74.393 539.681 72.8234C541.035 71.2384 542.782 70.0228 544.921 69.1764C547.076 68.3147 549.569 67.8838 552.401 67.8838C554.37 67.8838 556.256 68.1146 558.056 68.5763C559.872 69.0379 561.48 69.7535 562.881 70.7229C564.297 71.6924 565.412 72.9388 566.228 74.4623C567.044 75.9703 567.452 77.7785 567.452 79.8866V103.8H558.125V98.8835H557.848C557.279 99.9914 556.517 100.969 555.563 101.815C554.609 102.646 553.462 103.3 552.123 103.777C550.785 104.239 549.238 104.469 547.484 104.469ZM550.3 97.6832C551.746 97.6832 553.024 97.3985 554.132 96.8291C555.24 96.2444 556.109 95.4596 556.74 94.4747C557.371 93.4899 557.687 92.3742 557.687 91.1278V87.3653C557.379 87.5654 556.956 87.75 556.417 87.9193C555.894 88.0732 555.301 88.2194 554.64 88.3579C553.978 88.481 553.316 88.5964 552.654 88.7041C551.993 88.7965 551.392 88.8811 550.854 88.958C549.7 89.1273 548.692 89.3966 547.83 89.7659C546.968 90.1352 546.299 90.6353 545.821 91.2663C545.344 91.8818 545.106 92.6512 545.106 93.5745C545.106 94.9133 545.591 95.9366 546.56 96.6445C547.545 97.3369 548.792 97.6832 550.3 97.6832Z" fill="#171717"/>
<path d="M583.322 56.5273V61.5131C583.322 62.9288 583.045 64.3753 582.491 65.8526C581.952 67.3144 581.229 68.6994 580.321 70.0074C579.413 71.3 578.42 72.4003 577.343 73.3082L573.003 70.746C573.773 69.5303 574.45 68.1839 575.035 66.7066C575.635 65.2293 575.935 63.5135 575.935 61.5592V56.5273H583.322Z" fill="#171717"/>
<path d="M588.476 103.8V68.3455H597.848V74.6008H598.263C599.002 72.5234 600.233 70.8845 601.957 69.6842C603.681 68.4839 605.743 67.8838 608.144 67.8838C610.575 67.8838 612.645 68.4916 614.353 69.7073C616.061 70.9076 617.2 72.5388 617.77 74.6008H618.139C618.862 72.5695 620.171 70.9461 622.063 69.7304C623.972 68.4993 626.226 67.8838 628.827 67.8838C632.136 67.8838 634.821 68.9379 636.884 71.0461C638.961 73.1389 640 76.1088 640 79.9559V103.8H630.189V81.8948C630.189 79.9251 629.666 78.4478 628.619 77.463C627.573 76.4781 626.265 75.9857 624.695 75.9857C622.91 75.9857 621.517 76.5551 620.517 77.6938C619.516 78.8172 619.016 80.3021 619.016 82.1487V103.8H609.482V81.6871C609.482 79.9482 608.982 78.5633 607.982 77.5322C606.997 76.5012 605.697 75.9857 604.081 75.9857C602.988 75.9857 602.003 76.2627 601.126 76.8167C600.264 77.3553 599.579 78.117 599.071 79.1019C598.563 80.0713 598.31 81.21 598.31 82.518V103.8H588.476Z" fill="#171717"/>
</svg>
