<svg width="523" height="200" viewBox="0 0 523 200" fill="none" xmlns="http://www.w3.org/2000/svg">
<path d="M304.115 60.0066H228.067C224.06 82.5582 217.428 121.143 214.141 139.997H246.447C248.917 125.813 255.686 86.9167 258.681 69.8912H282.915C293.087 69.8912 300.4 76.7598 298.708 88.5317C297.094 97.852 293.185 120.306 289.742 139.997H322.048C324.343 126.766 328.816 101.121 330.917 89.0376C333.796 72.6542 325.14 60.0066 304.115 60.0066Z" fill="#830065"/>
<path d="M139.085 130.463C124.07 127.992 126.87 110.033 126.87 110.033C140.193 111.628 156.998 111.258 168.473 110.11C178.412 109.137 198.017 106.666 203.619 91.3725C209.162 76.2149 204.941 63.9566 186.659 60.532C173.199 58.0414 160.693 57.9052 144.356 60.1039C121.035 63.2366 108.199 71.1365 102.5 85.0099C99.3684 92.6568 97.4818 101.744 96.6455 109.994C95.1673 124.996 97.9875 138.752 116.756 140.25C141.924 142.274 161.724 141.827 182.691 138.538L189.226 129.218C169.329 132.526 146.651 131.728 139.085 130.463ZM132.764 85.9049C136.77 76.3706 142.663 70.3776 153.691 67.8481C158.573 66.7196 162.736 66.739 168.57 68.0038C177.226 69.8523 179.89 79.9508 176.078 87.8312C171.838 96.6261 166.159 98.5914 158.729 100.109C150.677 101.782 140.077 102.016 128.407 101.218C129.224 96.3343 131.266 89.4657 132.764 85.9049Z" fill="#830065"/>
<path d="M456.212 130.463C441.197 127.992 443.997 110.033 443.997 110.033C457.34 111.628 474.125 111.258 485.6 110.11C495.539 109.137 515.144 106.666 520.726 91.3725C526.27 76.2149 522.068 63.9566 503.786 60.532C490.307 58.0414 477.801 57.9052 461.463 60.1039C438.143 63.2366 425.345 71.1365 419.627 85.0099C416.476 92.6568 414.59 101.744 413.773 109.994C412.294 124.996 415.115 138.752 433.884 140.25C459.032 142.274 478.832 141.827 499.837 138.538L506.353 129.218C486.456 132.526 463.797 131.728 456.212 130.463ZM449.91 85.9049C453.897 76.3706 459.791 70.3776 470.799 67.8481C475.681 66.7196 479.863 66.739 485.698 68.0038C494.353 69.8523 496.998 79.9508 493.225 87.8312C488.965 96.6261 483.305 98.5914 475.875 100.109C467.823 101.782 457.223 102.016 445.553 101.218C446.351 96.3343 448.393 89.4657 449.91 85.9049Z" fill="#830065"/>
<path d="M41.6029 86.6637C43.3145 76.8959 46.7765 71.2532 57.3766 69.3269C66.868 67.5951 84.4311 68.7431 94.7394 69.8911L101.664 59.9871C86.0454 58.8586 59.6716 57.5744 44.0341 59.8509C21.7447 63.0809 12.6617 67.634 10.1333 81.8966C8.63566 90.4385 1.90607 129.043 0 139.997H32.3059C34.5232 127.272 40.0275 95.6921 41.6029 86.6637Z" fill="#830065"/>
<path d="M390.277 10.9925C371.917 23.8735 365.693 39.6732 362.309 59.0921L348.616 137.448C345.543 155.272 344.182 164.573 341.147 173.329C338.716 180.664 330.722 191.444 317.419 191.619L311.603 199.908C328.777 200.745 342.509 195.783 352.214 188.992C370.575 176.131 377.343 157.723 380.747 138.344C380.98 137.02 386.952 102.716 389.811 86.4692C391.892 74.9307 397.941 68.6069 410.68 68.4318L416.593 60.0066H394.42C397.571 42.0276 398.699 34.264 401.286 26.7922C403.814 19.4566 411.73 8.67702 424.995 8.52135L430.908 0.0961428C413.695 -0.759999 399.983 4.20173 390.277 10.9925Z" fill="#830065"/>
</svg>
