<svg width="584" height="200" viewBox="0 0 584 200" fill="none" xmlns="http://www.w3.org/2000/svg">
<path fill-rule="evenodd" clip-rule="evenodd" d="M222.862 142.998H236.897V118.112H250.906C257.948 118.112 260.548 121.047 261.533 127.695C262.24 132.713 262.063 138.884 263.754 142.873H277.663C275.138 139.311 275.138 131.86 274.987 127.821C274.558 121.423 272.463 114.775 265.698 113.019V112.894C272.766 110.059 275.795 104.464 275.795 97.0132C275.795 87.4549 268.575 79.452 257.141 79.452H222.862V142.998ZM236.897 90.3148H252.244C258.479 90.3148 261.886 92.9741 261.886 99.0954C261.886 105.217 258.479 108.152 252.244 108.152H236.897V90.3148Z" fill="#1D1D1B"/>
<path fill-rule="evenodd" clip-rule="evenodd" d="M284.554 119.968C284.554 134.519 293.918 144.102 308.382 144.102C322.846 144.102 332.312 134.519 332.312 119.968C332.312 105.417 322.922 95.7588 308.382 95.7588C293.843 95.7588 284.554 105.342 284.554 119.968ZM297.175 119.968C297.175 112.618 299.699 105.242 308.332 105.242C316.964 105.242 319.59 112.618 319.59 119.968C319.59 127.319 317.065 134.619 308.332 134.619C299.598 134.619 297.175 127.244 297.175 119.968Z" fill="#1D1D1B"/>
<path fill-rule="evenodd" clip-rule="evenodd" d="M373.431 142.998H385.471V79.5272H372.85V102.583C371.312 100.401 369.251 98.6343 366.854 97.4428C364.456 96.2514 361.798 95.6726 359.119 95.7588C345.538 95.7588 338.673 107.199 338.673 119.542C338.673 131.885 345.463 144.102 359.371 144.102C362.137 144.289 364.903 143.728 367.374 142.478C369.846 141.228 371.93 139.336 373.406 137.003H373.582V142.998H373.431ZM373.254 119.918C373.254 127.444 370.73 134.745 362.35 134.745C354.499 134.745 351.193 127.218 351.193 120.018C351.193 112.818 354.045 105.367 362.35 105.367C370.654 105.367 373.254 112.467 373.254 119.918Z" fill="#1D1D1B"/>
<path fill-rule="evenodd" clip-rule="evenodd" d="M423.738 125.111C423.738 127.871 423.36 135.673 413.465 135.673C409.35 135.673 405.69 134.519 405.69 129.828C405.69 125.136 409.275 123.882 413.263 123.079C417.251 122.276 421.668 122.276 423.814 120.42V125.111H423.738ZM407.129 111.112C407.583 106.095 410.688 104.188 415.509 104.188C420.331 104.188 423.738 104.991 423.738 110.385C423.738 115.779 416.494 115.402 408.593 116.431C400.692 117.459 393.019 119.968 393.019 130.455C393.019 139.863 399.985 144.203 408.719 144.203C411.561 144.343 414.402 143.913 417.074 142.939C419.745 141.965 422.192 140.467 424.268 138.533C424.385 140.043 424.681 141.533 425.152 142.973H438C436.719 139.728 436.176 136.241 436.41 132.763V108.804C436.41 97.7909 425.329 95.7588 416.216 95.7588C405.867 95.7588 395.24 99.2961 394.533 111.112H407.129Z" fill="#1D1D1B"/>
<path d="M446.557 142.873H459.254V79.5272H446.557V142.873Z" fill="#1D1D1B"/>
<path fill-rule="evenodd" clip-rule="evenodd" d="M469.502 142.998H482.123V96.9881H469.502V142.998ZM482.123 79.6527H469.502V90.0389H482.123V79.5272V79.6527Z" fill="#1D1D1B"/>
<path fill-rule="evenodd" clip-rule="evenodd" d="M535.99 122.929C536.873 108.804 529.275 95.6835 513.575 95.6835C499.565 95.6835 489.999 106.145 489.999 119.893C489.999 134.092 499.035 144.027 513.575 144.027C524.025 144.027 531.598 139.411 535.182 128.598H524.025C523.217 131.433 519.103 134.544 513.928 134.544C506.86 134.544 502.948 130.906 502.594 122.929H535.99ZM502.695 114.926C502.82 112.272 503.998 109.776 505.971 107.984C507.944 106.193 510.551 105.252 513.221 105.367C519.38 105.367 522.157 108.754 523.318 115.126L502.695 114.926Z" fill="#1D1D1B"/>
<path d="M541.24 127.946C541.77 140.088 552.22 144.077 562.923 144.077C573.626 144.077 584 140.189 584 128.122C584 119.592 576.756 116.933 569.36 115.252C561.964 113.571 554.972 112.944 554.972 108.428C554.972 104.69 559.187 104.163 562.039 104.163C566.583 104.163 570.344 105.493 570.697 110.36H582.738C581.753 99.0954 572.49 95.7337 562.393 95.7337C552.296 95.7337 542.199 98.7442 542.199 110.46C542.199 118.538 549.519 121.097 556.84 122.703C565.952 124.66 571.228 125.989 571.228 129.802C571.228 134.243 566.583 135.648 562.923 135.648C557.875 135.648 553.28 133.44 553.179 127.946H541.24Z" fill="#1D1D1B"/>
<path fill-rule="evenodd" clip-rule="evenodd" d="M241.238 155.066H237.073V168.086C236.131 166.816 234.891 165.794 233.462 165.108C232.032 164.422 230.456 164.092 228.87 164.147C221.12 164.147 217.309 170.143 217.309 177.243C217.309 184.343 221.171 190.514 228.971 190.514C230.561 190.662 232.16 190.367 233.591 189.662C235.022 188.958 236.228 187.872 237.073 186.525V189.937H241.238V155.066ZM221.6 177.494C221.6 172.476 223.518 167.735 229.173 167.735C234.827 167.735 237.275 172.326 237.275 177.293C237.275 182.26 235.13 186.801 229.526 186.801C223.922 186.801 221.676 182.235 221.676 177.494H221.6Z" fill="#1D1D1B"/>
<path fill-rule="evenodd" clip-rule="evenodd" d="M264.537 181.884C264.277 183.387 263.457 184.737 262.241 185.667C261.025 186.596 259.502 187.037 257.974 186.902C256.885 186.954 255.798 186.772 254.786 186.369C253.775 185.965 252.863 185.349 252.112 184.563C251.362 183.777 250.792 182.84 250.44 181.814C250.088 180.789 249.963 179.7 250.073 178.623H269.055C269.307 172.526 266.531 164.197 257.57 164.197C250.654 164.197 245.656 169.742 245.656 177.293C245.656 184.844 249.72 190.564 257.822 190.564C260.388 190.776 262.937 190.005 264.95 188.41C266.963 186.816 268.287 184.517 268.651 181.984L264.537 181.884ZM250.073 174.86C250.086 172.961 250.856 171.145 252.214 169.81C253.572 168.474 255.407 167.728 257.317 167.735C259.233 167.734 261.072 168.48 262.441 169.812C263.809 171.144 264.598 172.956 264.638 174.86H250.073Z" fill="#1D1D1B"/>
<path d="M315.728 165.577C314.642 158.176 308.609 154.263 301.314 154.263C290.511 154.263 284.73 162.517 284.73 172.602C284.73 182.687 290.031 190.665 300.91 190.665C309.745 190.665 315.197 185.396 316.056 176.716H311.386C310.957 182.461 307.423 186.751 301.289 186.751C292.883 186.751 289.375 180.128 289.375 172.175C289.375 164.925 292.883 158.101 301.239 158.101C303.518 157.909 305.788 158.568 307.604 159.951C309.419 161.334 310.651 163.34 311.058 165.577H315.728Z" fill="#1D1D1B"/>
<path fill-rule="evenodd" clip-rule="evenodd" d="M336.249 181.106C336.249 183.389 334.003 186.801 328.5 186.801C325.976 186.801 323.603 185.823 323.603 183.088C323.603 180.354 325.951 179.049 328.651 178.572C331.257 178.453 333.821 177.876 336.224 176.867V181.106H336.249ZM343.014 186.55C342.613 186.712 342.185 186.797 341.752 186.801C340.414 186.801 340.414 185.923 340.414 183.966V171.021C340.414 165.101 335.366 164.097 330.898 164.097C325.269 164.097 320.423 166.28 320.17 172.526H324.335C324.537 168.813 327.137 167.735 330.671 167.735C333.321 167.735 336.3 168.337 336.3 171.949C336.3 175.06 332.387 174.759 327.768 175.637C323.149 176.515 319.186 177.694 319.186 183.389C319.186 188.407 322.972 190.464 327.566 190.464C329.256 190.52 330.936 190.198 332.483 189.52C334.03 188.843 335.404 187.828 336.502 186.55C336.502 189.285 337.865 190.464 340.036 190.464C341.072 190.512 342.102 190.277 343.014 189.787V186.55Z" fill="#1D1D1B"/>
<path d="M352.076 157.123H347.886V164.649H343.57V168.337H347.886V184.368C347.886 189.009 349.602 189.887 353.919 189.887H357.124V186.224H355.206C352.682 186.224 352.076 185.873 352.076 183.966V168.337H357.124V164.674H352.076V157.123Z" fill="#1D1D1B"/>
<path fill-rule="evenodd" clip-rule="evenodd" d="M376.813 181.106C376.813 183.389 374.542 186.801 369.064 186.801C366.54 186.801 364.016 185.823 364.016 183.088C364.016 180.354 366.388 179.049 369.064 178.572C371.669 178.45 374.233 177.872 376.637 176.867V181.106H376.813ZM383.679 186.55C383.27 186.714 382.833 186.799 382.392 186.801C381.079 186.801 381.079 185.923 381.079 183.966V171.021C381.079 165.101 376.031 164.097 371.563 164.097C365.909 164.097 361.062 166.28 360.81 172.526H365C365.177 168.813 367.777 167.735 371.311 167.735C373.961 167.735 376.965 168.337 376.965 171.949C376.965 175.06 373.027 174.759 368.433 175.637C363.839 176.515 359.851 177.694 359.851 183.389C359.851 188.407 363.612 190.464 368.231 190.464C369.917 190.52 371.594 190.197 373.136 189.52C374.679 188.842 376.048 187.827 377.141 186.55C377.141 189.285 378.53 190.464 380.675 190.464C381.72 190.514 382.758 190.279 383.679 189.787V186.55Z" fill="#1D1D1B"/>
<path d="M387.062 189.887H391.252V155.066H387.062V189.887Z" fill="#1D1D1B"/>
<path d="M418.084 164.674H413.97V178.899C414.095 179.934 413.989 180.984 413.658 181.974C413.327 182.963 412.781 183.868 412.057 184.623C411.333 185.379 410.451 185.965 409.472 186.342C408.494 186.718 407.444 186.875 406.397 186.801C405.724 186.837 405.052 186.732 404.423 186.493C403.794 186.254 403.222 185.885 402.746 185.412C402.27 184.939 401.899 184.371 401.659 183.746C401.418 183.121 401.312 182.452 401.349 181.784V164.724H397.184V181.307C397.184 186.701 399.228 190.514 405.917 190.514C407.562 190.565 409.187 190.157 410.611 189.337C412.034 188.517 413.197 187.317 413.97 185.873V189.887H417.882V164.799L418.084 164.674Z" fill="#1D1D1B"/>
<path d="M423.763 189.887H427.928V175.612C427.808 174.578 427.917 173.529 428.25 172.542C428.582 171.554 429.129 170.651 429.851 169.897C430.574 169.143 431.455 168.556 432.431 168.178C433.407 167.8 434.456 167.64 435.501 167.71C436.175 167.669 436.849 167.772 437.48 168.01C438.111 168.247 438.684 168.616 439.161 169.09C439.638 169.564 440.008 170.133 440.248 170.76C440.487 171.387 440.59 172.058 440.549 172.727V189.812H444.74V173.304C444.74 167.885 442.67 164.097 436.006 164.097C434.336 164.004 432.674 164.383 431.213 165.191C429.752 166 428.552 167.204 427.752 168.663V164.674H423.839V189.761L423.763 189.887Z" fill="#1D1D1B"/>
<path d="M471.42 164.674H466.978L459.86 185.296L452.464 164.674H447.743L457.84 189.761L456.124 194.051C455.855 194.735 455.382 195.321 454.768 195.729C454.154 196.137 453.429 196.349 452.691 196.334C451.826 196.262 450.976 196.068 450.167 195.757V199.546C451.099 199.87 452.082 200.023 453.07 199.997C456.805 199.997 458.522 198.191 460.415 193.274L471.471 164.699L471.42 164.674Z" fill="#1D1D1B"/>
<path fill-rule="evenodd" clip-rule="evenodd" d="M490.024 181.106C490.024 183.389 487.777 186.801 482.275 186.801C479.75 186.801 477.378 185.823 477.378 183.088C477.378 180.354 479.725 179.049 482.426 178.572C485.032 178.453 487.596 177.876 489.999 176.867V181.106H490.024ZM496.789 186.55C496.388 186.712 495.959 186.797 495.527 186.801C494.189 186.801 494.189 185.923 494.189 183.966V171.021C494.189 165.101 489.14 164.097 484.673 164.097C479.044 164.097 474.197 166.28 473.945 172.526H478.11C478.312 168.813 480.911 167.735 484.445 167.735C487.096 167.735 490.074 168.337 490.074 171.949C490.074 175.06 486.162 174.759 481.543 175.637C476.923 176.515 472.96 177.694 472.96 183.389C472.96 188.407 476.747 190.464 481.341 190.464C483.03 190.52 484.711 190.198 486.258 189.52C487.804 188.843 489.178 187.828 490.276 186.55C490.276 189.285 491.639 190.464 493.81 190.464C494.847 190.512 495.876 190.277 496.789 189.787V186.55Z" fill="#1D1D1B"/>
<path d="M0 0H191.108V189.937H0V0Z" fill="#EF7D00"/>
<path fill-rule="evenodd" clip-rule="evenodd" d="M79.5377 142.396H113.842V103.787H132.092C145.672 103.787 146.606 114.8 147.54 125.337C147.863 131.108 148.811 136.827 150.367 142.396H184.671C181.566 137.379 181.389 124.108 180.935 118.664C179.698 104.866 173.918 94.6549 164.553 91.0674C175.937 86.9029 181.238 74.8108 181.238 63.3207C181.238 42.3978 164.401 31.6855 144.889 31.6855H79.5377V142.396ZM114.624 58.0524H130.703C143.804 58.0524 147.716 62.0914 147.716 69.0658C147.716 78.9753 138.957 80.0791 132.571 80.0791H114.624V58.0524Z" fill="white"/>
</svg>
